<?xml version="1.0" encoding="UTF-8"?>
<svg id="Camada_1" xmlns="http://www.w3.org/2000/svg" version="1.1" viewBox="0 0 1024 1536">
  <!-- Generator: Adobe Illustrator 29.8.3, SVG Export Plug-In . SVG Version: 2.1.1 Build 3)  -->
  <path d="M213,1470c.02.09,1.26.19,1,.99h-25c5.29-2.73,17.55-.04,24-.99Z" fill="#e5e5e5"/>
  <rect x="505.96" y="771.18" width="10.04" height="489.92" fill="#ff0000"/>
  <rect x="340.21" y="161" width="342.89" height="10" fill="#ff0000"/>
  <path d="M496,506l17.02-35c1.78-.08,2.12-.5,1.99,1.49-.49,7.79-2.73,15.62-2.01,23.51h14l-18.01,35.99c-1.81,0-1.07-4.31-.97-5.48.57-6.7,3.2-13.65,2.98-20.52h-15Z" fill="#ff0000"/>
  <path d="M474,282c3.87-3.76,8.22,9.77,10.99,11,.88-4.91-2.85-12.76,4.01-11v18c-6.66,1.8-7.02-5.92-10.51-10.01l-.5,10.01c-.71-.14-3.99.2-3.99,0,0-2.51-.65-17.37,0-18Z" fill="#ff0000"/>
  <path d="M575.28,298.72c-6.58-6.58-.3-21.17,10.71-16.2,10.72,4.84-.49,26.41-10.71,16.2ZM578.24,296.75c7.35,7.44,12.37-14.83,1.46-11.57-3.72,1.11-3.51,9.5-1.46,11.57Z" fill="#ff0000"/>
  <path d="M459.72,282.21c17.77-4,12.73,25.38-1.63,17.2-6.56-3.74-5.49-15.59,1.63-17.2ZM459.24,296.75c6.99,7.25,12.59-14.91,1.46-11.58-3.72,1.11-3.51,9.46-1.46,11.58Z" fill="#ff0000"/>
  <path d="M556,282c4.21.11,10.15-1.08,13.02,2.75s2.81,11.62-1.63,14.14c-1.85,1.05-11.39,2.49-11.39.61v-17.5ZM565.76,286.24c-1.36-1.36-4.88-1.25-6.76-1.24v12.01c7.29,2.79,10.76-6.77,6.76-10.77Z" fill="#ff0000"/>
  <path d="M452,287.99c-3.41,1.37-5.35-2.91-7.46-2.98-7.2-.23-6.19,14.71,1.85,11.87.35-.12,4.53-6.38,5.61-1.37s-14.27,9.15-15.93-1.08c-2.11-13.04,11.86-17.96,15.93-6.44Z" fill="#ff0000"/>
  <path d="M492,282h12.01s0,3,0,3c-1.49.27-7.65-.36-8.01,0s-.12,3.81.94,4.56c2.47,1.74,5.24-1.79,7.06.95.69,3.8-7.58,2.06-8,2.49-1.93,8.02,6.94.53,9,6.48l-12.99.51v-18Z" fill="#ff0000"/>
  <path d="M538,282v3c-.83.2-5-.25-5,0v15c0,.2-4,.2-4,0v-15c0-.25-4.17.19-5.01,0v-3h14.01Z" fill="#ff0000"/>
  <path d="M552.99,301c-4.29-.4-2.73-4.42-7.49-5.06-6.34-.86-1.82,5.59-8.5,4.06,1.39-2.38,5.31-17.36,6.09-17.89.55-.38,2.53-.25,3.24.05,2.12.87,7.92,17.41,6.66,18.85ZM548,292.99l-2.99-5.99-2.01,5.99h4.99Z" fill="#ff0000"/>
  <path d="M521.99,287.99c-2.5,2.33-4.65-2.28-4.97-2.49-7-4.52-10.41,14.31-.73,11.31,1.12-.35,1.63-1.56,2.19-1.83,7.1-3.43,3.19,6.17-3.89,5.97-11.94-.33-10.06-22.74,3.68-18.75,1.75.51,4.99,4.6,3.71,5.79Z" fill="#ff0000"/>
  <g>
    
    <path d="M218,831l-.99-112.01h-30.01c.98-.97,1-.89,2.4-1.05,3.12-.35,26.53-.3,27.67.49.42.29.68.7.8,1.2.28,37.11.11,74.26.14,111.36Z" fill="#3a3b3c"/>
    <path d="M810,1465c.08,1.66-.07,3.35,0,5.01,7.22.7,16.41-1.42,23.01.99h-24s1-6,1-6Z" fill="#e5e5e5"/>
    <path d="M261.95,92h499.1v1314h-499.1V92ZM340.21,161v10h342.89v-10h-342.89ZM359.78,236.28c-10.41.95-21.59,10.6-22.79,21.21l-.04,410.05c1.21,13.31,12.39,22.69,25.51,23.49h299.08c12.31-1.12,23.51-10.82,24.5-23.49l.99-406.08c-1.29-15.08-11.4-24.69-26.5-25.5l-300.75.32ZM505.96,771.18v489.92h10.04v-489.92h-10.04ZM461.9,1329v8.08h99.2v-8.08h-99.2ZM560.76,1353.76c1.81-1.75.87-5.82-1.42-6.59l-96.34.33c-3.68,3.45-.84,7.05,3.45,7.56,28.84-1.93,60.61,2.39,89.1-.01,1.6-.13,4.04-.16,5.21-1.29ZM461.91,1366v7h99.19v-7h-99.19Z" fill="#3a3b3c"/>
    <g>
      
      <path d="M807,87c-.48-10.5.66-21.57,0-32,1.66,1.04,1,3.79,1.02,5.49.11,9.08-.44,17.73-1.02,26.51Z" fill="#e5e5e5"/>
      <path d="M219,53.5c1.49-9.55,11.49-19.31,21.46-19.54,155.22.26,310.91-.36,465,.08,24.49.07,54.35-2.2,78.08-.08,4.58.41,10.65,2.87,13.95,6.05,1.58,1.52,6.51,9.8,6.51,11.49v35c0,.11-1.39,1.5-1.5,1.5H220.5c-.11,0-1.5-1.39-1.5-1.5,0-9.32-1.32-24.55,0-33Z" fill="#3a3b3c"/>
    </g>
    <g>
      <rect x="217" y="1409.94" width="590.05" height="61.06" fill="#3a3b3c"/>
      <rect x="189" y="1474" width="645" height="4" fill="#3a3b3c"/>
    </g>
    <g>
      
      <path d="M805,821c.03-32.85.02-65.74-.05-98.6-.16-1.31.28-1.63,1.05-2.4l-1,101Z" fill="#e5e5e5"/>
      <path d="M763,982c1.44-189.19,1.59-379.56,2.05-568.45.26-107.51-.3-215.05-.04-322.55,4.27,1.71,8.35-.13,12.46-.04s7.5.99,11,1.08c2.74.07,14.1-1.39,14.59.62-.24,140.1.16,280.24-.05,420.34-3.03-.56-1.92,1.53-2,3.45-2.48,62.66-.68,130.05-.02,193.06.02,1.69-.64,4.45,1.02,5.49,0,4.32,0,8.68,0,13-1.67,3.7-1.69,11.09,0,15-.24,213.17.14,426.37.05,639.55-1.42,7.75-1.06,15.6-1.05,23.45h-38c.24-103.65-.32-207.35,0-311,3.03.56,1.92-1.53,2-3.45.62-15.66.52-33.41,0-49.09-.06-1.93,1.02-4.01-2-3.45.02-.66-.03-1.34,0-2,2.98.88,3.18-3.78,0-3,.26-2.11.75-2.8,1-4,.27-1.29,2.67-4.2,0-6,0-8.43-.81-16.64-1-25,2.84,1.58,2.49-7.36,2.02-9.37-.27-1.17-1.09-.54-2.02-.63,0-1.33,0-2.67,0-4,2.98.88,3.18-3.78,0-3Z" fill="#e5e5e5"/>
      <path d="M803,513c-.1,67.39-.93,134.7-1,202-1.66-1.04-1-3.79-1.02-5.49-.66-63.01-2.46-130.4.02-193.06.08-1.93-1.03-4.01,2-3.45Z" fill="#f8f8f8"/>
      <path d="M763,1039c3.02-.56,1.94,1.53,2,3.45.52,15.68.62,33.43,0,49.09-.08,1.93,1.03,4.01-2,3.45.06-18.6-.6-37.42,0-56Z" fill="#f8f8f8"/>
      <path d="M763,989c.93.09,1.75-.54,2.02.63.47,2.01.82,10.95-2.02,9.37-.08-3.32.02-6.68,0-10Z" fill="#f8f8f8"/>
      <path d="M802,743c-1.69-3.91-1.67-11.3,0-15,0,4.99,0,10.01,0,15Z" fill="#f8f8f8"/>
      <path d="M764,1030v-6c2.67,1.8.27,4.71,0,6Z" fill="#f8f8f8"/>
      <path d="M763,1034c3.18-.78,2.98,3.88,0,3,.05-.98-.12-2.04,0-3Z" fill="#f8f8f8"/>
      <path d="M763,982c3.18-.78,2.98,3.88,0,3,0-1,0-2,0-3Z" fill="#f8f8f8"/>
    </g>
    <g>
      <path d="M226,92c9.81,2.22,20.77.44,31.01.99v395.55s1.99,3.45,1.99,3.45c.03,134.92-.18,270.03,0,405-1.66,1.04-1,3.79-1.02,5.49-.93,75.33-2.5,155.01.02,230.06.06,1.93-1.02,4.01,2,3.45,0,2.33,0,4.67,0,7-3.03-.56-1.92,1.53-2,3.45-.42,10.58-.35,22.49,0,33.09.06,1.93-1.02,4.01,2,3.45-.02,74.32.02,148.68,0,223h-38c-1.64-6.3-.99-13.03-1.05-19.54-2.46-297.33.36-596.48.05-894.46,1.64-.56,1.37-3.12,0-4,0-.51-1-2.22-1-4,3.03.56,1.92-1.53,2-3.45,3.02-76.28.82-158.35.02-235.06-.02-1.69.64-4.45-1.02-5.49.03-14.65-.02-29.35,0-44,1.56-.41,1.5-3.68,0-4,0-2.66,0-5.34,0-8,1.5-.14,1.5-2.86,0-3,0-1.67,0-3.33,0-5l.99-1.49-.99-.51c1.9-24.66-4.19-54.46-1.05-78.55.68-5.2,2.41-4.28,6.05-3.45Z" fill="#e5e5e5"/>
      <path d="M226,92c5.32-.12,29.1-2.84,31.76.25.62.71,1.11,4.06,1.23,5.26.05,131.49-.02,263.01.01,394.49l-2-3.45V92.99c-10.23-.56-21.19,1.23-31-.99Z" fill="#f8f8f8"/>
      <path d="M221,240c1.66,1.04,1,3.79,1.02,5.49.81,76.71,3,158.78-.02,235.06-.08,1.93,1.03,4.01-2,3.45-.09-81.26.81-162.82,1-244Z" fill="#f8f8f8"/>
      <path d="M260,1136c-3.02.56-1.94-1.53-2-3.45-2.51-75.05-.95-154.73-.02-230.06.02-1.69-.64-4.45,1.02-5.49.11,79.6.89,159.29,1,239Z" fill="#f8f8f8"/>
      <path d="M260,1143c.02,13.32,0,26.68,0,40-3.02.56-1.94-1.53-2-3.45-.35-10.6-.42-22.51,0-33.09.08-1.93-1.03-4.01,2-3.45Z" fill="#f8f8f8"/>
      <path d="M221,196c0-1.33,0-2.67,0-4,1.5.32,1.56,3.59,0,4Z" fill="#f8f8f8"/>
      <path d="M221,492c0-1.33,0-2.67,0-4,1.37.88,1.64,3.44,0,4Z" fill="#f8f8f8"/>
      <path d="M221,184c0-1,0-2,0-3,1.5.14,1.5,2.86,0,3Z" fill="#f8f8f8"/>
      <path d="M221,176c0-.67,0-1.33,0-2l.99.51-.99,1.49Z" fill="#f8f8f8"/>
    </g>
    
    <path d="M560.76,1353.76c-1.17,1.13-3.62,1.15-5.21,1.29-28.48,2.4-60.25-1.92-89.1.01-4.29-.51-7.13-4.12-3.45-7.56l96.34-.33c2.29.78,3.24,4.85,1.42,6.59Z" fill="#0d0d0d"/>
    <rect x="461.9" y="1329" width="99.2" height="8.08" fill="#0d0d0d"/>
    <rect x="461.91" y="1366" width="99.19" height="7" fill="#0d0d0d"/>
    <g>
      <path d="M807,55c.66,10.43-.48,21.5,0,32-.05.84-1.62,2.89-1.04,4.43l.04,397.57,92,1c1.57.26,3.11-.23,5.02.46,7.49,2.7,10.27,9.68,10.97,17.06,4.1,43.77-3.26,93.73-.02,138.02,1.37,18.75,8.59,40.06,9.09,58.92.18,6.9-3.1,8.71-3.16,13.02-.14,11.22,8.39,28.07-3.4,35.53,13.18,102.8,35.11,204.58,48.38,307.6,9.51,73.77,24.87,218.59-21.47,280.3-24.79,33.01-63.85,32.4-89.24.42-50.38-63.47-43.67-219.59-40.18-297.84,1.15-25.91,2.2-52.03,4.02-77.98,5.77-82.2,16.93-164.04,18.99-246.52-9.08.8-19.74-1.04-28.61-.05-1.4.16-1.42.08-2.4,1.05-.77.77-1.22,1.09-1.05,2.4.08,32.87.09,65.75.05,98.6-.2,192.95,3.88,386.68.05,579.55-.04,2.23-1.28,5.75-1.12,6.8.08.54,5.13,2.2,5.98,8.24,2.02,14.35-.6,34.17.09,49.41l-1,6h24c5.81,2.12,5.93,7.81.24,9.72l-640.79.32c-6.88.87-9.29-7.02-3.45-10.05h25c.26-.81-.98-.91-1-1-1.54-9.23-1-42.43.01-52.49.8-7.98,5.97-9.48,6.01-10.1.06-.83-1.05-3.05-1.08-4.87-3.39-190.26.22-381.22.05-571.54-.03-37.11.14-74.25-.14-111.36-.12-.5-.38-.91-.8-1.2-1.14-.79-24.54-.84-27.67-.49-1.4.16-1.42.08-2.4,1.05-1.7,1.7-1.14,13.22-1.04,16.54,1.11,36.59,6.08,73.53,9.03,109.97,7.06,87.28,15.11,174.78,16.01,262.49.14,13.96.2,28.04,0,42-.82,56.01-6.17,149.52-43.97,193.53-23.73,27.62-58.73,30.69-83.54,2.49-46.66-53.03-36.7-185.94-29.36-252.39,12.46-112.79,36.34-224.03,52.89-336.18,1.23-4.81-3-5.95-4.87-9.1-4.67-7.84,1.28-21.9.92-30.83-.19-4.8-3.55-7.76-3.1-16.06.99-18.54,7.8-39.26,9.07-57.92,3.07-45.07-2.45-93.53.05-138.95,2.53-10.72,7.38-14.09,17.91-14.59,27.26-1.28,61.66,3.25,87.55.04.98-.12,2.34.34,2.45-1.04l.5-398.51c-1.91-10.59-2.53-26-1.54-37.03,1.12-12.54,13.25-22.68,25.5-23.5h540.07c14.43,1.51,24.54,10.32,25.46,25.04ZM219,53.5c-1.32,8.45,0,23.68,0,33,0,.11,1.39,1.5,1.5,1.5h582c.11,0,1.5-1.39,1.5-1.5v-35c0-1.7-4.93-9.97-6.51-11.49-3.3-3.18-9.38-5.64-13.95-6.05-23.73-2.12-53.59.15-78.08.08-154.09-.44-309.78.18-465-.08-9.97.23-19.97,9.99-21.46,19.54ZM221,174c0,.67,0,1.33,0,2,0,1.67,0,3.33,0,5,0,1,0,2,0,3,0,2.66,0,5.34,0,8,0,1.33,0,2.67,0,4-.02,14.65.03,29.35,0,44-.19,81.18-1.09,162.74-1,244,0,1.78,1,3.49,1,4,0,1.33,0,2.67,0,4,.32,297.98-2.51,597.13-.05,894.46.05,6.51-.59,13.24,1.05,19.54h38c.02-74.32-.02-148.68,0-223,0-13.32.02-26.68,0-40,0-2.33,0-4.67,0-7-.11-79.71-.89-159.4-1-239-.18-134.97.03-270.08,0-405-.03-131.48.04-263-.01-394.49-.11-1.21-.61-4.55-1.23-5.26-2.66-3.08-26.44-.37-31.76-.25-3.64-.82-5.37-1.75-6.05,3.45-3.15,24.09,2.94,53.89,1.05,78.55ZM763,982c0,1,0,2,0,3,0,1.33,0,2.67,0,4,.02,3.32-.08,6.68,0,10,.19,8.36,1,16.57,1,25v6c-.25,1.2-.74,1.89-1,4-.12.96.05,2.02,0,3-.03.66.02,1.34,0,2-.6,18.58.06,37.4,0,56-.32,103.65.24,207.35,0,311h38c-.01-7.86-.37-15.7,1.05-23.45.09-213.18-.29-426.38-.05-639.55,0-4.99,0-10.01,0-15,0-4.32,0-8.68,0-13,.07-67.3.9-134.61,1-202,.2-140.1-.19-280.23.05-420.34-.49-2.02-11.85-.55-14.59-.62-3.49-.09-7-1-11-1.08s-8.18,1.75-12.46.04c-.26,107.5.3,215.04.04,322.55-.46,188.9-.61,379.26-2.05,568.45ZM261.95,92v1314h499.1V92h-499.1ZM217,493h-93.5c-3.06,0-10.5,6.15-10.5,9.5v119.5l10.89-42.61c1.49-17.63-1.63-37.53.12-54.88.92-9.18,5.02-14.45,14.49-15.51,11.46-1.29,34.3-.84,46-.09,8.1.52,17.08,1.29,20.03,10.06l.49,163.55c-.96,6.25-5.42,11.92-11.75,13.25-1.71.36-7.28-.14-7.28.23v19c7.61,1.86,14.37.15,21.5-.08,1.7-.06,9.5,2.57,9.5-.42v-221.5ZM911,623v-118.5c0-3.89-7.62-11.5-11.5-11.5h-93.5v222c10.58,2.01,20.41-.28,31,0v-19c-10.04-.94-17.05-2.18-19.02-13.48.56-54.72-1.01-109.69.79-164.26,1.78-5.46,8.34-8.67,13.73-9.27,10.09-1.14,47.84-1.17,56.76,1.24,6.77,1.83,9.08,7.8,9.73,14.27,1.73,17.16-2.14,38.12.1,54.9,1.34,10.04,7.47,29.63,10.2,40.81.25,1.02.29,3.01,1.71,2.78ZM202,557v-35.5c0-.72-3.04-5.14-4.04-5.96-2.15-1.77-4.72-2.33-7.41-2.59-11-1.07-43.62-1.47-53.99.11-3.12.48-8.56,4.38-8.56,7.44v44.5l4.56-8.94c13.04-16.76,47.57-21.79,63.47-6.6,2.26,2.16,3.52,5.74,5.96,7.54ZM821,522.5c-1.69,10.24,1.26,24.77,0,35.5,6.08-8.88,11.35-13.84,22.15-16.35,13.16-3.05,38.26,1.36,46.84,12.85l4.99,9.49c.31-14.77,1.55-29.32-.44-44.05-.72-2.33-4.86-6.19-7.26-6.74l-56.73-.15c-4.64.72-8.81,4.89-9.56,9.44ZM136,557c-8.58,11.59-12.67,37.59-16,52-1.84,7.96-4.14,15.7-5.69,23.81-1.12,5.88-8.74,47.15-7.3,49.18,15.69-12.21,40.83-7.55,50,10,1.65,1.14,2.91-9.45,2.9-10.62-.02-4.13-2.98-10.78-2.95-15.83.07-11.99,5.98-38.46,12-48.89.52-.9,1.89-.53,2.04-.66l-3,30c25.93-2.59,27.5-29.45,28-50s3.24-41.81-20.98-48.52c-12.82-3.55-30.65-1.79-39.02,9.52ZM827,603c.24,3.66,1.4,7.42,2,11,.34,2.07.5,3.89,1,6,3.39,14.36,9.75,24.78,25.99,26l-3.99-29c.5-.15,1.96-1.77,2.99-.99,1.34,1,7.07,20.64,7.72,23.79,1.67,8.1,4.1,22.71,3.19,30.6-.39,3.33-2.62,7.27-2.72,10.07-.13,3.51,1.99,8.74,1.84,12.53,1.63-.42,1.69-2.92,2.98-4.5,11.71-14.42,34.36-18.53,48.52-5.51-3.98-29.21-8.07-58.69-16.51-86.98-.21-7.48-4.46-17.85-7-25-3.34-9.39-3.76-16.64-13.99-21.51-16.52-7.87-44.32-4.09-50.5,15.52-2.58,8.16-2.11,28.85-1.51,37.99ZM823.26,573.98c0-.68-.55-1.23-1.23-1.23s-1.23.55-1.23,1.23.55,1.23,1.23,1.23,1.23-.55,1.23-1.23ZM824,594h-3v25.5c0,6.05,8.33,23.72,9.76,32.24,1.12,6.64,1.7,14.96,2.23,21.77.43,5.63-2.4,16.91,4,18.48-3.42-16.19,11-22.17,24-16,.8-1.08-4.13-25.26-4.9-26.37-.98-1.42-7.45-1.61-9.81-2.41-8.97-3.04-14.17-10.17-17.31-18.69-1.04-2.82-4.97-15.9-4.97-18.03v-16.5ZM185,691.99c2.24,2.16,4.41-2.81,4.75-4.74,2.09-11.68,1.33-26.43,3.36-38.64,1.43-8.58,6.02-14.64,7.61-23.39.46-2.55,2.44-11.17-.36-12.11-5.08-1.7-2.92,2.53-3.5,6.26-2.77,17.76-12.02,27.38-29.92,30.26l-3.95,26.36c7.1-4.8,22.54-1.89,23.8,7.73.29,2.25-2.68,7.42-1.81,8.26ZM856.99,630c.5-4.16-1.48-4.16-.98,0h.98ZM162.99,658l2.99-25.99c-1.53-.24-1.18,1.87-1.47,3-1.29,5.06-3.17,12.45-3.5,17.51-.13,1.99-1.13,6.4,1.98,5.48ZM862.99,664.99c.25-7.36-.83-14.98-2.28-22.2-.66-3.31-.9-8.8-3.7-10.79,1.76,9.29,2.5,18.9,4.32,28.17.26,1.31.11,4.84,1.66,4.83ZM162,662.01h-1.99s0,4.99,0,4.99c1.36.68,2.39-4.56,1.98-4.99ZM170.76,677.22c-8.46,1.23-8.28,6.93-8.8,14.24-2.55,36.16,2.24,81.39,5.05,118.03,9.19,119.7,24.07,238.74,20.03,359.05-1.4,41.65-10.06,138.23-44.71,165.29-33.24,25.96-53.38-21.08-60.05-46.61-16.06-61.49-10.37-131.06-3.27-193.71,11.49-101.37,32.11-201.47,47.85-302.15,1.8-11.53,5.49-27.98,6.13-38.89.1-1.71.41-4-.49-5.49-2.22-3.67-16.07-5.44-19.5-2.48-1.98,1.71-6.2,37.86-7.17,43.83-15.88,97.88-35.28,195.63-46.82,294.18-8.29,70.8-17.82,173.16,13.13,238.85,24.98,53,73.65,55.11,103.03,4.31,44.29-76.58,34.28-241.3,28.82-329.16-5.54-89.09-18.4-179.03-21.03-267.97-.44-14.98.44-30.04.02-45.02-1.9-5.04-6.91-7.08-12.22-6.31ZM848.76,677.22c-2.78.4-7.15,2.23-7.74,5.3-1.46,7.68.29,22.28.02,31.02-3.82,121.78-22.88,243.09-26.09,364.91-1.81,68.67-2.51,208.65,43.54,262.56,22.64,26.51,56.6,29.2,79.48,1.46,47.1-57.12,34.32-194.9,25.89-264.83-11.25-93.28-29.53-185.75-44.57-278.43-2.7-16.63-3.88-34.04-7.55-50.45-.32-1.42-.61-3.26-1.77-4.23-4.21-3.53-21.05-1.3-19.91,6.8,16.84,109.79,39.62,218.92,52.81,329.29,8.06,67.4,16.21,153.3-5.41,218.34-10.18,30.63-34.72,61.69-63.97,27.05-39.84-47.17-38.94-181.11-37.54-241.56,2.13-91.55,12.99-182.69,20.04-273.96,2.92-37.73,7.54-82.63,5.05-120.04-.59-8.88-1.37-14.82-12.28-13.24ZM153.99,714.99c.67-8.87,4.88-16.48-.99-24.49-8.05-10.99-26.97-14.97-39.06-9.07-10.35,5.06-9.07,11.47-10.93,21.56.68.69,6.3-3.96,7.79-4.7,11.62-5.79,36.14-3.11,41.45,9.96.98,2.41-.06,5.77,1.74,6.74ZM918.99,703c.26-10.59-.05-17.33-10.6-21.89-12.4-5.36-29.11-1.33-37.82,8.96-6.39,7.57-2.21,14.31-1.56,22.92l3.53-6.96c11.69-12.21,34.41-16.59,46.45-3.04ZM919,738c.21-1.35.24-8.2-.16-8.84-1.91-3.07-15.17-2.51-15.61-7.82-.67-8.16,11.31-1.48,14.75.17-1.73-1.49-.38-5.21-1.11-6.38-1.01-1.61-14.9-3.21-14.91-7.63-.02-5.67,11.65-.13,14.03,1.5.34-7.9-12.09-11.19-18.34-10.9-9.25.44-25.74,7.59-23.15,18.89,3.55-3.62,8.22-7.62,13.5-7.99-7,6.25-14.23,8.61-11.99,19.98,2.91.31,2.43-2.94,4.49-5,2.51-2.51,12.55-8.37,13.55-2.47.84,4.99-5.95,6.07-9.57,8.45-6.86,4.51-7.22,5.78-5.48,14.02.97,4.61,3.48,11.03,9,10.99-5.31-13.21,11.28-16.95,21.08-14.57,3.49.85,8.64,5.79,9.92-2.42ZM142,711c.97.5,1.78.37,3.04,1.42,1.79,1.5,2.21,3.76,3.95,4.58,3.65-7.46-9.68-16.25-15.93-17.55-7.62-1.58-22.26-1.72-25.05,7.55l10.99-1.99c1.89,10.57-16,4.61-12.98,17,4.01-3.1,7.78-4.73,12.99-4,2.58,10.3-8.69,6.39-12.99,10.52-2.16,2.08-1.98,6.68-2.01,9.49-.05,4.66-.07,8.44,3.5,12,1.42-16.8,34.25-11.87,28.5,5,4.88-1.27,6.94-5.61,7.99-10,.7-2.93,1.72-7.25.47-9.98-2.14-4.7-14.44-7.94-15.33-11.73-2-8.52,10.95-2.8,14.4,1.66,1.66,2.14,1.51,4.94,3.44,6.05,2.52-10.75.92-11.35-6.99-16.99l2-3ZM76,1176c-1.66,1.04-1,3.79-1.02,5.49-.09,8.99-.11,18.04,0,27.03.02,1.69-.64,4.45,1.02,5.49.71,29.84,7.82,105.8,37.68,120.82,16.1,8.1,29.28-3.99,37.74-16.9,39.72-60.63,33.94-205.7,30.62-277.46-4.92-106.55-19.23-212.34-23.05-318.95-.43-4.81-6.81-1.19-7.78,1.21-3.3,8.13-3.07,27.84-9.25,32.75-2.81,2.23-6.65,1.73-7.75,6.25-3.26,13.45-4.07,30.51-6.47,44.53-11.02,64.49-22.11,128.75-31.82,193.18-8.78,58.25-18.58,117.4-19.92,176.58ZM947,1213c1.66-1.04,1-3.79,1.02-5.49.09-8.66.11-17.37,0-26.03-.02-1.69.64-4.45-1.02-5.49-1.07-45.68-6.84-91.16-13.14-136.36-12.96-92.95-31.12-185.11-45.11-277.89-.71-4.4-5.47-4.23-8.17-6.83-5.84-5.61-6.05-24.61-8.83-32.68-2.67-1.48-4.34-3.96-7.75-3.25-1.52,84.18-13.37,167.61-18.99,251.51-5.96,88.94-14.69,206.35,5.48,292.5,5.16,22.05,27.71,93.69,61.84,69.81,27.4-19.17,33.83-88.74,34.68-119.82ZM807.05,1409.94H217v61.06h590.05v-61.06ZM189,1474v4h645v-4H189Z" fill="#0d0d0d"/>
      <path d="M947,1213c.33-12.07.28-24.92,0-37,1.66,1.04,1,3.79,1.02,5.49.11,8.66.09,17.37,0,26.03-.02,1.69.64,4.45-1.02,5.49Z" fill="#3a3b3c"/>
      <g>
        <path d="M211,1150c.2-13.96.14-28.04,0-42v42Z" fill="#e5e5e5"/>
        <path d="M170.76,677.22c5.31-.77,10.32,1.26,12.22,6.31.42,14.98-.46,30.04-.02,45.02,2.63,88.94,15.49,178.88,21.03,267.97,5.46,87.86,15.47,252.58-28.82,329.16-29.38,50.79-78.05,48.69-103.03-4.31-30.96-65.69-21.42-168.05-13.13-238.85,11.54-98.54,30.94-196.3,46.82-294.18.97-5.97,5.19-42.12,7.17-43.83,3.43-2.96,17.28-1.19,19.5,2.48.89,1.48.59,3.77.49,5.49-.64,10.91-4.33,27.36-6.13,38.89-15.75,100.67-36.37,200.77-47.85,302.15-7.1,62.65-12.79,132.21,3.27,193.71,6.67,25.53,26.8,72.57,60.05,46.61,34.65-27.06,43.31-123.64,44.71-165.29,4.04-120.31-10.84-239.35-20.03-359.05-2.81-36.64-7.6-81.87-5.05-118.03.52-7.32.34-13.01,8.8-14.24Z" fill="#3a3b3c"/>
        <path d="M104,738c.03-2.81-.15-7.41,2.01-9.49,4.3-4.13,15.57-.22,12.99-10.52-5.22-.73-8.99.9-12.99,4-3.01-12.38,14.87-6.42,12.98-17l-10.99,1.99c2.79-9.27,17.43-9.13,25.05-7.55,6.25,1.3,19.58,10.09,15.93,17.55-1.74-.81-2.16-3.08-3.95-4.58-1.25-1.05-2.06-.92-3.04-1.42-1.31-.67-5.39-3.62-7-1.99-2.48,2.5,3.83,4.16,5,4.99,7.91,5.65,9.51,6.25,6.99,16.99-1.93-1.1-1.78-3.9-3.44-6.05-3.45-4.46-16.4-10.18-14.4-1.66.89,3.78,13.19,7.03,15.33,11.73,1.24,2.73.23,7.05-.47,9.98-8.55-12.57-27.45-14.31-40-7Z" fill="#3a3b3c"/>
        <path d="M153.99,714.99c-1.8-.97-.77-4.33-1.74-6.74-5.32-13.07-29.84-15.76-41.45-9.96-1.49.74-7.11,5.39-7.79,4.7,1.87-10.09.58-16.5,10.93-21.56,12.08-5.91,31-1.93,39.06,9.07,5.87,8.01,1.66,15.62.99,24.49Z" fill="#3a3b3c"/>
        <path d="M144,745c-1.05,4.38-3.12,8.73-7.99,10,5.75-16.87-27.08-21.8-28.5-5-3.57-3.56-3.56-7.34-3.5-12,12.55-7.31,31.45-5.57,40,7Z" fill="#181818"/>
        <path d="M76,1214c-1.66-1.04-1-3.79-1.02-5.49-.11-8.99-.09-18.04,0-27.03.02-1.69-.64-4.45,1.02-5.49-.29,12.57-.3,25.43,0,38Z" fill="#e5e5e5"/>
        <path d="M142,711l-2,3c-1.17-.84-7.48-2.49-5-4.99,1.61-1.63,5.69,1.33,7,1.99Z" fill="#181818"/>
      </g>
      <g>
        <path d="M848.76,677.22c10.91-1.58,11.69,4.36,12.28,13.24,2.49,37.41-2.13,82.3-5.05,120.04-7.06,91.27-17.91,182.41-20.04,273.96-1.41,60.45-2.3,194.39,37.54,241.56,29.26,34.64,53.79,3.58,63.97-27.05,21.62-65.04,13.47-150.93,5.41-218.34-13.2-110.37-35.97-219.5-52.81-329.29-1.14-8.11,15.7-10.33,19.91-6.8,1.16.97,1.45,2.81,1.77,4.23,3.67,16.41,4.86,33.82,7.55,50.45,15.03,92.68,33.32,185.15,44.57,278.43,8.43,69.92,21.21,207.71-25.89,264.83-22.88,27.74-56.84,25.05-79.48-1.46-46.05-53.91-45.35-193.89-43.54-262.56,3.21-121.82,22.26-243.13,26.09-364.91.27-8.74-1.48-23.34-.02-31.02.59-3.08,4.96-4.9,7.74-5.3Z" fill="#3a3b3c"/>
        <path d="M918.99,703c-12.04-13.56-34.76-9.17-46.45,3.04l-3.53,6.96c-.65-8.61-4.83-15.36,1.56-22.92,8.7-10.29,25.41-14.32,37.82-8.96,10.55,4.56,10.86,11.3,10.6,21.89Z" fill="#3a3b3c"/>
        <path d="M919,738c-1.29,8.21-6.43,3.27-9.92,2.42-9.8-2.38-26.38,1.36-21.08,14.57-5.52.03-8.02-6.38-9-10.99,3.7.06,4.47-3.34,7.97-5.53,9.55-5.95,22.37-6.29,32.03-.47Z" fill="#181818"/>
        <path d="M879,744c-1.74-8.24-1.39-9.51,5.48-14.02,3.62-2.38,10.41-3.46,9.57-8.45-.99-5.9-11.04-.04-13.55,2.47-2.06,2.06-1.59,5.31-4.49,5-2.24-11.37,5-13.73,11.99-19.98-5.29.37-9.95,4.37-13.5,7.99-2.59-11.3,13.9-18.45,23.15-18.89,6.25-.3,18.68,2.99,18.34,10.9-2.38-1.62-14.05-7.16-14.03-1.5.01,4.42,13.9,6.02,14.91,7.63.73,1.17-.61,4.89,1.11,6.38-3.44-1.66-15.42-8.33-14.75-.17.44,5.31,13.7,4.75,15.61,7.82.4.64.37,7.5.16,8.84-9.66-5.81-22.48-5.48-32.03.47-3.5,2.18-4.28,5.59-7.97,5.53Z" fill="#3a3b3c"/>
      </g>
      <g>
        <g>
          <path d="M217,489c-.11,1.38-1.47.92-2.45,1.04-25.89,3.21-60.29-1.32-87.55-.04l90-1Z" fill="#3a3b3c"/>
          <path d="M196,596c-3.17-.56-1.78,1.59-1.97,3.49-1.07,11.02-2.88,30.38-13.09,36.95-7.37,4.75-4.99-1.02-4.9-4.9.08-3.24.32-15.34-1.99-17.1-3.32-2.53-2.88,1.4-3.06,1.56-.15.13-1.52-.25-2.04.66-6.01,10.44-11.93,36.9-12,48.89-.03,5.05,2.93,11.7,2.95,15.83,0,1.17-1.25,11.76-2.9,10.62-9.18-17.54-34.31-22.21-50-10-1.44-2.03,6.18-43.3,7.3-49.18,1.55-8.11,3.85-15.85,5.69-23.81,1.13,2.62,2.82,5.68,6,6-.99,13.18,18.21,13.92,25.05,7.55,4.1-3.81,7.75-21.88,9.68-28.32,1.52-5.06,6.97-16.18,6.1-20.5-1.92-9.48-19.44-9.14-25.83-4.74-3.91-2.54-3.09-8.25-5-12,8.37-11.31,26.2-13.07,39.02-9.52,24.22,6.7,21.47,28.17,20.98,48.52Z" fill="#f8f8f8"/>
          <path d="M217,493v221.5c0,2.99-7.8.36-9.5.42-7.13.23-13.89,1.94-21.5.08v-19c0-.36,5.57.13,7.28-.23,6.33-1.33,10.78-7,11.75-13.25l-.49-163.55c-2.95-8.77-11.93-9.55-20.03-10.06-11.7-.75-34.55-1.2-46,.09-9.47,1.07-13.56,6.33-14.49,15.51-1.75,17.35,1.37,37.25-.12,54.88l-10.89,42.61v-119.5c0-3.35,7.44-9.5,10.5-9.5h93.5Z" fill="#3a3b3c"/>
          <path d="M202,557c-2.44-1.8-3.7-5.38-5.96-7.54-15.9-15.19-50.43-10.15-63.47,6.6l-4.56,8.94v-44.5c0-3.05,5.45-6.96,8.56-7.44,10.37-1.59,42.98-1.18,53.99-.11,2.69.26,5.26.82,7.41,2.59,1,.82,4.04,5.24,4.04,5.96v35.5Z" fill="#181818"/>
          <path d="M185,691.99c-.88-.84,2.1-6.02,1.81-8.26-1.26-9.62-16.7-12.53-23.8-7.73l3.95-26.36c17.9-2.88,27.15-12.5,29.92-30.26.58-3.73-1.58-7.96,3.5-6.26,2.8.94.82,9.56.36,12.11-1.59,8.75-6.18,14.81-7.61,23.39-2.04,12.21-1.28,26.96-3.36,38.64-.34,1.93-2.51,6.9-4.75,4.74Z" fill="#181818"/>
          <path d="M196,596c-.5,20.56-2.06,47.42-28,50l3-30c.18-.15-.27-4.08,3.06-1.56,2.32,1.76,2.07,13.86,1.99,17.1-.1,3.88-2.47,9.65,4.9,4.9,10.2-6.57,12.02-25.93,13.09-36.95.18-1.89-1.2-4.04,1.97-3.49Z" fill="#e5e5e5"/>
          <path d="M162.99,658c-3.11.92-2.11-3.49-1.98-5.48.33-5.06,2.21-12.45,3.5-17.51.29-1.14-.06-3.25,1.47-3l-2.99,25.99Z" fill="#181818"/>
          <path d="M162,662.01c.41.43-.63,5.67-1.98,4.99v-4.99s1.98,0,1.98,0Z" fill="#181818"/>
          <path d="M126,615c.52-6.92,6.27-25.46,8.73-32.77,1.24-3.67,3.13-11.07,6.27-13.23,6.39-4.4,23.91-4.75,25.83,4.74.87,4.32-4.57,15.43-6.1,20.5-1.94,6.43-5.59,24.5-9.68,28.32-6.84,6.37-26.04,5.63-25.05-7.55Z" fill="#181818"/>
        </g>
        <g>
          <path d="M898,490l-92-1,88.62-.07c1.34-.55,2.84.98,3.38,1.07Z" fill="#3a3b3c"/>
          <path d="M911,623c-1.42.23-1.46-1.76-1.71-2.78-2.73-11.18-8.87-30.76-10.2-40.81-2.23-16.78,1.63-37.74-.1-54.9-.65-6.47-2.96-12.44-9.73-14.27-8.92-2.42-46.67-2.38-56.76-1.24-5.39.61-11.95,3.81-13.73,9.27-1.8,54.56-.23,109.54-.79,164.26,1.98,11.29,8.98,12.54,19.02,13.48v19c-10.59-.28-20.42,2.01-31,0v-222h93.5c3.88,0,11.5,7.61,11.5,11.5v118.5Z" fill="#3a3b3c"/>
          <path d="M821,522.5c.75-4.55,4.93-8.72,9.56-9.44l56.73.15c2.41.54,6.55,4.4,7.26,6.74,1.98,14.73.74,29.28.44,44.05l-4.99-9.49c-8.58-11.49-33.69-15.9-46.84-12.85-10.8,2.51-16.07,7.47-22.15,16.35,1.26-10.73-1.69-25.26,0-35.5Z" fill="#181818"/>
          <path d="M824,594v16.5c0,2.13,3.93,15.22,4.97,18.03,3.15,8.52,8.35,15.65,17.31,18.69,2.37.8,8.83.99,9.81,2.41.76,1.1,5.69,25.29,4.9,26.37-13-6.17-27.42-.19-24,16-6.4-1.58-3.57-12.86-4-18.48-.53-6.81-1.1-15.14-2.23-21.77-1.44-8.52-9.76-26.19-9.76-32.24v-25.5h3Z" fill="#181818"/>
          <path d="M852,617l3.99,29c-16.24-1.22-22.61-11.64-25.99-26,3.68-.61,2.36.38,3.3,2.17,3.56,6.82,6.41,15.53,15.7,15.83-1.94-6.97-.57-13.43-.04-20.41.35-1.28,2.16-.32,3.05-.58Z" fill="#e5e5e5"/>
          <path d="M862.99,664.99c-1.55.01-1.4-3.52-1.66-4.83-1.82-9.27-2.56-18.88-4.32-28.17,2.79,1.99,3.03,7.48,3.7,10.79,1.45,7.23,2.54,14.84,2.28,22.2Z" fill="#3a3b3c"/>
          <path d="M827,603c4.06-.29,2.48-.16,2.97,2.48.61,3.28,1.24,6.64,1.03,10.02l-2-1.5c-.6-3.58-1.76-7.34-2-11Z" fill="#e5e5e5"/>
          <circle cx="822.02" cy="573.98" r="1.23" fill="#181818"/>
          <path d="M856.99,630h-.98c-.5-4.16,1.48-4.16.98,0Z" fill="#3a3b3c"/>
          <path d="M893,571c-4.17-2.74-5.95,1.09-6,5-4.65-13.92-32.58-14.71-29.76,3.26,1.79,11.39,10.88,27.05,12.7,39.29,3.1,9.08,25.14,10.59,27.03.93,1-5.12-1.15-7.49-1.97-11.48,4.82,1.38,5.1-8.49,5-12,8.44,28.29,12.53,57.77,16.51,86.98-14.16-13.02-36.81-8.91-48.52,5.51-1.29,1.59-1.35,4.09-2.98,4.5.15-3.79-1.97-9.02-1.84-12.53.1-2.8,2.34-6.74,2.72-10.07.92-7.89-1.51-22.5-3.19-30.6-.65-3.15-6.38-22.78-7.72-23.79-1.03-.77-2.48.85-2.99.99-.89.26-2.69-.7-3.05.58-.52,6.99-1.9,13.45.04,20.41-9.29-.29-12.14-9.01-15.7-15.83-.93-1.79.39-2.78-3.3-2.17-.5-2.11-.66-3.93-1-6l2,1.5c.21-3.38-.42-6.73-1.03-10.02-.49-2.65,1.09-2.77-2.97-2.48-.6-9.15-1.07-29.83,1.51-37.99,6.19-19.61,33.98-23.39,50.5-15.52,10.23,4.88,10.65,12.13,13.99,21.51Z" fill="#f8f8f8"/>
          <path d="M887,576c-.08,6.14,6.34,23.99,8,32,.83,3.99,2.98,6.35,1.97,11.48-1.89,9.66-23.93,8.16-27.03-.93-1.82-12.24-10.91-27.9-12.7-39.29-2.82-17.97,25.11-17.19,29.76-3.26ZM883,575.99c-.9-8.71-20.05-8.04-22.49-2.99-2.73,5.62,2.33,3.84,6.49,4,.85,3.14-3.31,1.99-4.56,3.99-1.53,2.44,5.2,17.05,5.62,20.95,7.26-.76,14.74-3.81,21.93-.95.46-.62-2.46-12.15-3.15-13.34-1.45-2.49-5.56-2.29-5.85-2.67-.68-.89,4.08-8.65-1.99-6.99l4-2ZM890.91,602.1c-6.96-.24-14.39-1.43-20.75,2.06.82,12.71,3.35,21.14,18.28,18.78,9.97-1.57,3.51-14.85,2.47-20.84Z" fill="#0d0d0d"/>
          <path d="M883,575.99l-4,2c6.07-1.65,1.32,6.1,1.99,6.99.29.38,4.4.18,5.85,2.67.69,1.19,3.61,12.72,3.15,13.34-7.19-2.86-14.68.19-21.93.95-.42-3.9-7.15-18.51-5.62-20.95,1.25-2,5.41-.85,4.56-3.99-4.16-.16-9.22,1.61-6.49-4,2.45-5.05,21.59-5.71,22.49,2.99ZM878.26,582.98c0-.68-.55-1.23-1.23-1.23s-1.23.55-1.23,1.23.55,1.23,1.23,1.23,1.23-.55,1.23-1.23Z" fill="#181818"/>
          <path d="M890.91,602.1c1.04,5.99,7.5,19.26-2.47,20.84-14.92,2.36-17.45-6.07-18.28-18.78,6.36-3.49,13.78-2.3,20.75-2.06Z" fill="#181818"/>
          <circle cx="877.02" cy="582.98" r="1.23" fill="#0d0d0d"/>
        </g>
      </g>
    </g>
    <g>
      <path d="M359.78,236.28l300.75-.32c15.1.81,25.21,10.42,26.5,25.5l-.99,406.08c-.99,12.68-12.19,22.37-24.5,23.5h-299.08c-13.11-.81-24.3-10.19-25.51-23.5l.04-410.05c1.2-10.61,12.37-20.27,22.79-21.21ZM355.73,240.23c-9.35,3.38-14.85,10.17-15.77,20.23l.53,410.55c3.21,10.5,12.34,16.11,22.97,17.03h296.07c11.33-.68,22.63-8.5,23.5-20.5-1.59-128.75,2.26-257.84,0-386.06-.1-5.86,1.39-11.88.99-18.02-.76-11.93-6.62-22.36-19.49-23.5l-308.81.27Z" fill="#0d0d0d"/>
      <path d="M355.73,240.23l308.81-.27c12.87,1.15,18.73,11.57,19.49,23.5.39,6.14-1.1,12.16-.99,18.02,2.26,128.22-1.59,257.31,0,386.06-.88,11.99-12.17,19.81-23.5,20.5h-296.07c-10.64-.92-19.77-6.52-22.97-17.03l-.53-410.55c.92-10.07,6.42-16.85,15.77-20.23ZM452,287.99c-4.07-11.52-18.04-6.59-15.93,6.44,1.66,10.23,16.98,5.99,15.93,1.08s-5.26,1.25-5.61,1.37c-8.04,2.84-9.05-12.1-1.85-11.87,2.11.07,4.05,4.34,7.46,2.98ZM459.72,282.21c-7.12,1.6-8.19,13.46-1.63,17.2,14.36,8.18,19.4-21.2,1.63-17.2ZM474,282c-.65.63,0,15.49,0,18,0,.2,3.28-.13,3.99,0l.5-10.01c3.49,4.08,3.85,11.81,10.51,10.01v-18c-6.86-1.76-3.13,6.09-4.01,11-2.77-1.23-7.12-14.76-10.99-11ZM492,282v18l12.99-.51c-2.06-5.95-10.92,1.54-9-6.48.42-.43,8.69,1.31,8-2.49-1.82-2.73-4.59.8-7.06-.95-1.06-.75-1.28-4.21-.94-4.56s6.52.26,8.01,0v-2.99s-12.01,0-12.01,0ZM521.99,287.99c1.28-1.19-1.96-5.28-3.71-5.79-13.74-3.99-15.62,18.42-3.68,18.75,7.08.19,10.98-9.4,3.89-5.97-.57.27-1.07,1.48-2.19,1.83-9.69,3-6.27-15.83.73-11.31.32.2,2.46,4.81,4.97,2.49ZM538,282h-14v3c.83.2,5-.25,5,0v15c0,.2,4,.2,4,0v-15c0-.25,4.17.19,5.01,0v-3ZM552.99,301c1.27-1.43-4.54-17.97-6.66-18.85-.71-.29-2.69-.43-3.24-.05-.78.54-4.7,15.51-6.09,17.89,6.68,1.53,2.16-4.93,8.5-4.06,4.76.65,3.2,4.66,7.49,5.06ZM556,282v17.5c0,1.88,9.54.44,11.39-.61,4.44-2.52,4.47-10.36,1.63-14.14s-8.81-2.64-13.02-2.75ZM575.28,298.72c10.22,10.21,21.43-11.36,10.71-16.2-11.01-4.97-17.29,9.62-10.71,16.2ZM417.73,327.23c-12.79,2.63-15.14,25.93-3.43,31.97,10.15,5.23,22.61.22,23.75-11.64,1.31-13.64-5.83-23.31-20.32-20.32ZM471,337.99c-.71-9.52-9.01-12.26-17.44-10.93-16.22,2.57-17.21,38.2,7.71,33.7,5.25-.95,9.56-5.38,9.72-10.76-6.39-2.07-6.65,3.84-10.71,4.79-15.03,3.49-14.72-21.05-3.77-21.85,8.32-.61,6.64,4.75,8.14,5.11,1.7.41,4.42-.35,6.34-.05ZM490.5,327c-4.26-.71-10.03.51-14.5,0v34c11.34,3.04,5.29-10.3,7-12,.35-.35,7.13.03,9.83-.67,10.91-2.83,9.35-19.39-2.32-21.32ZM519.5,327c-4.26-.71-10.03.51-14.5,0v34h6.01s-.01-12.01-.01-12.01c5.43,0,10.2.91,14.56-2.94,7.11-6.28,2.9-17.57-6.05-19.05ZM596,334.99c-11.31-24.92-32.29,16.24-15.37,24.88,19.52,9.97,25.81-27.07,1.38-19.88-.63-.61,3.4-7.95,6.44-6.97,1.54.5.92,4.96,7.55,1.97ZM621,327h-6v24.5c0,2.61-4.38,4.69-7,3-1.77-1.14-1.76-5.09-6.99-3.5-1.43,8.28,7.2,11.68,14.05,9.55,1.66-.52,5.94-4.65,5.94-6.05v-27.5ZM557,328c-1.83-1.48-12.46,3.55-12.84,4.16-.72,1.16.1,4.25-.15,5.84l6.99-3v25h6v-32ZM571.73,357c0-2.33-1.89-4.23-4.23-4.23s-4.23,1.89-4.23,4.23,1.89,4.23,4.23,4.23,4.23-1.89,4.23-4.23ZM398,385v18h3c-1.61-10.09,3.45-3.5,8.09-7.41,7.62-6.44-4.06-13.13-11.09-10.59ZM455.26,389.81c-.62-.54-.37-2.67-1.19-3.35-3.65-3.01-2.67,1.34-3.09,2.8-.28.96-1.89.85-1.99,1.25-.77,2.89,1.81,2.24,2.01,3.15,1.07,4.94-2.03,12.09,7,9.33.73-2.61-2.64-2.32-3.01-3.69-1.81-6.8,2.36-6.36,3.01-7.81,1.02-2.29-1.87-.92-2.74-1.68ZM434.47,396.49c0-3.79-3.07-6.87-6.87-6.87s-6.87,3.07-6.87,6.87,3.07,6.87,6.87,6.87,6.87-3.07,6.87-6.87ZM448,403c.73-11.33.31-15.49-12-13.01.34,2.01-.46,12.56,0,13.01.25.24,3.02-.17,3.99,0,.91-4.97-2.8-10.9,3.5-10.01,2.09.29-2.68,13.06,4.5,10.01ZM464.65,389.3c-8.64.47-8.31,14.84.69,14.39,8.14-.4,7.79-14.86-.69-14.39ZM490.76,401.76c2.03-2.04,1.61-8.44-.3-10.72-3.27-3.91-6.32.75-10.46-1.05-1.64,6.35-.43,11.68,0,18.02h2.99c-1.88-8.51,4.57-3.04,7.77-6.25ZM505,403c.4-.38.14-9.48-.53-10.98-4.11-9.27-18.04,6.65-5-.03l1.52,3c-8.4-2.4-10.37,7.94-3.38,8.72.56.06,7.12-.46,7.39-.71ZM514.99,389c-1.56,1.07-7.71.72-8,.99-.47.45.35,10.99.01,13.01,7.06,1.49,2.63-4.27,4.11-8.39.84-2.34,5.49-.2,3.87-5.61ZM527.01,403.01c-.44-3.42,1.05-8.81-.93-11.58-3.49-4.89-11.44-.02-9.07,2.57,1.74,1.91,3.37-2.06,3.58-2.06,1.34.02,4.26,1.03,3.41,3.06-13.42-.31-9.64,11.14,3.01,8.01ZM547,393.99c-3.12-9.96-15.37-2.57-11.47,5.99,3.42,7.53,13.76,1.01,11.47-.98s-9.67,7.72-7.99-6.01l7.99,1ZM560,403c-.28-3.71,1.03-8.95-1.54-11.96-2.89-3.4-10.31-1.92-9.46,2.95,2.93.63,5.77-4.63,7,.5.02,1.25-8.13-1.45-7.99,4.91s7.81,3.31,11.98,3.6ZM591.96,396.95c-.28-11.06-14.41-9.91-11.74,2.32,1.18,5.4,9.74,4.62,10.77,2.22,2.44-5.71-7.34,2.49-7.99-3.48l8.96-1.06ZM606,390c-.29-.28-7.47-.72-8.05-.57-8.26,2.14-5.44,17.76,4.03,12.58-.22,5.12-5.23,2-7.99,2-2.62,2.44,10.66,9.28,12.02-2.48.18-1.56.4-11.13-.02-11.52ZM619,403c-.43-3.42,1.05-8.8-.93-11.57-3.59-5.02-12.51-.07-10.07,2.57,1.3,1.4,6.52-4.89,7,.5-14.29,1.56-7.49,11.94,3.99,8.51ZM628.99,389c-1.33.59-7.69.73-7.99,1-.47.45.32,10.98,0,13,7.06,1.49,2.63-4.27,4.11-8.39.84-2.33,5.49-.2,3.88-5.61ZM421,390.01h-7.99s0,13,0,13h2.99c.13-2.77-.48-6.2.66-8.8.92-2.09,4.81-.87,4.34-4.2ZM570,390c-.28-.28-6.53.9-7.99,0v13c7.33,2.63,2.51-8.61,3.99-10.01.36-.34,3.66.35,4.02,0,.11-.11.1-2.89-.01-2.99ZM579.01,390h-8.01s0,13,0,13c7.04,1.48,2.65-4.23,4.12-8.38.89-2.52,5.16-.09,3.88-4.62ZM476.5,530c3.09-.96,18.77,0,23.5,0,.32,0,2.25-4.32-1.51-5-2.34-.42-26.55-1-27.49,0-.17.18.08,3.5-.46,5.04-5.24,15.11-29.39,11.51-28.55-5.04-22.33,3.29-21.16-8.91-16.33-25.83,3.58-12.55,18.67-10.56,29.35-13.65,9.22-2.67,11.32-9.98,17.47-16.54,4.94-5.26,9.29-10.12,17.01-10.99,11.8-1.33,37.97-1.07,50.04-.03,4.96.43,8.5,1.53,12.49,4.51,6.12,4.58,12.89,17.01,18.05,19.95,11.66,6.62,23.04-1.72,27.46,16.54,3.85,15.94,6.44,29.4-15.53,26.04.7,13.37-15.65,19.38-25.05,10.55-2.49-2.34-4.74-10.55-5.45-10.55h-31.5c-.28,0-1.83,4.05.66,4.85,4.89,1.56,24.6-1.3,27.19.32.27.17,1.73,4.43,2.73,5.78,8.67,11.73,24.5,12.49,33.44.57,1.32-1.76,2.1-5.48,2.95-6.05,3.38-2.29,12.47,2.79,16.81-6.19,3.41-7.05-.21-32.04-5.73-37.81-7.46-7.82-20.05-4.79-25.75-8.76-3.96-2.75-10.77-14.95-16.27-19.22-2.38-1.85-5.62-3.59-8.47-4.53-9.53-3.12-46.08-3.11-56.94-1.84-5.49.64-11.81,3.44-16.08,6.92-4.66,3.78-14.94,19.08-17.55,20.45-6.17,3.25-20.19,2.51-28.31,6.69-11.48,5.9-16.13,40.68-2.95,43.62,3.08.69,9.45-.61,11.33.67.85.57,1.62,4.29,2.95,6.05,8,10.65,23.69,11.85,32.01.98,1.24-1.62,3.39-7.15,4.5-7.5ZM496,506h15c.22,6.87-2.41,13.81-2.98,20.52-.1,1.16-.84,5.48.97,5.48l18.01-35.99h-14c-.72-7.89,1.52-15.72,2.01-23.51.12-1.98-.21-1.57-1.99-1.49l-17.02,35ZM488.99,653.99c.87-.84-5.71-10.77-6.48-13.01-3.55-10.38-1.35-22.65,6.47-30.51.36-1.53-2.07-3.14-2.97-2.47-.3.23-3.83,5.55-4.23,6.28-5.51,10.14-5.28,23.97.41,34.02.76,1.34,4.64,7.78,6.8,5.69ZM535.01,654c7.53-2.45,11-15.47,11.08-22.5.06-5.61-3.93-21.22-9.6-23.48-1.85-.74-1.69.99-1.31,2.31.79,2.68,3.6,5.26,4.85,8.16,3.85,8.94,3.75,16.94-.25,25.81-1.63,3.62-5.03,5.62-4.77,9.71ZM494.99,614.01c-2.15-2.08-4.86,3.72-5.51,4.98-4.01,7.78-4.3,13.04-1.26,21.28.46,1.25,3.72,7.57,4.27,7.75,5.78,1.9-1.6-8.74-2.06-10.97-.6-2.91-.76-6.63-.44-9.56.34-3.16,5.58-12.92,4.99-13.49ZM529.51,614.01c-3.64.76,1.88,6.34,2.68,8.3,2.39,5.8,2.42,11.59,0,17.39-1.39,3.34-6.93,7.12-1.71,8.3,6.31-6.03,7.83-15.53,5.83-23.81-.47-1.96-4.26-10.71-6.8-10.18ZM501.99,620.01c-3.09-3.06-6.8,7.4-6.96,9.61-.19,2.59,2.16,11.34,4.49,12.36,5.34,2.33.2-5.31-.02-5.97-2.51-7.42,3.15-15.34,2.49-15.99ZM524.81,620.23c-5.62-3.22.27,7.87.27,11.27,0,3.12-3.57,10.02-3.08,10.5,2.71,2.6,5.66-5.86,5.9-7.58.45-3.12-.33-12.6-3.1-14.19ZM519,631c0-3.94-3.2-7.14-7.14-7.14s-7.14,3.2-7.14,7.14,3.2,7.14,7.14,7.14,7.14-3.2,7.14-7.14Z" fill="#181818"/>
      <path d="M476.5,530c-1.11.34-3.26,5.87-4.5,7.5-8.32,10.87-24.01,9.66-32.01-.98-1.32-1.76-2.1-5.48-2.95-6.05-1.89-1.28-8.25.02-11.33-.67-13.17-2.94-8.53-37.72,2.95-43.62,8.13-4.18,22.15-3.44,28.31-6.69,2.6-1.37,12.89-16.67,17.55-20.45,4.28-3.47,10.59-6.28,16.08-6.92,10.86-1.27,47.41-1.28,56.94,1.84,2.85.93,6.09,2.68,8.47,4.53,5.5,4.28,12.31,16.47,16.27,19.22,5.7,3.97,18.29.94,25.75,8.76,5.51,5.78,9.14,30.76,5.73,37.81-4.34,8.98-13.44,3.9-16.81,6.19-.85.57-1.62,4.29-2.95,6.05-8.95,11.91-24.77,11.15-33.44-.57-1-1.35-2.45-5.61-2.73-5.78-2.58-1.62-22.29,1.24-27.19-.32-2.49-.79-.94-4.85-.66-4.85h31.5c.71,0,2.96,8.2,5.45,10.55,9.4,8.84,25.75,2.82,25.05-10.55,21.97,3.36,19.38-10.1,15.53-26.04-4.42-18.27-15.8-9.92-27.46-16.54-5.17-2.94-11.94-15.36-18.05-19.95-3.98-2.98-7.53-4.09-12.49-4.51-12.07-1.04-38.24-1.3-50.04.03-7.72.87-12.07,5.73-17.01,10.99-6.15,6.56-8.24,13.87-17.47,16.54-10.68,3.09-25.77,1.1-29.35,13.65-4.83,16.92-6,29.13,16.33,25.83-.84,16.55,23.31,20.15,28.55,5.04.53-1.54.28-4.86.46-5.04.94-1,25.15-.42,27.49,0,3.76.68,1.83,5,1.51,5-4.73,0-20.41-.96-23.5,0Z" fill="#e5e5e5"/>
      <path d="M417.73,327.23c14.48-2.98,21.63,6.69,20.32,20.32-1.14,11.86-13.6,16.87-23.75,11.64-11.71-6.03-9.36-29.33,3.43-31.97ZM419.72,333.21c-8.63,1.96-8.21,23.72,3.55,22.58s11.99-26.12-3.55-22.58Z" fill="#f8f8f8"/>
      <path d="M596,334.99c-6.63,2.99-6.01-1.47-7.55-1.97-3.04-.98-7.07,6.36-6.44,6.97,24.43-7.19,18.14,29.84-1.38,19.88-16.92-8.64,4.06-49.8,15.37-24.88ZM592.15,349.89c0-3.18-2.58-5.76-5.76-5.76s-5.76,2.58-5.76,5.76,2.58,5.76,5.76,5.76,5.76-2.58,5.76-5.76Z" fill="#e5e5e5"/>
      <path d="M471,337.99c-1.92-.29-4.64.47-6.34.05-1.5-.36.18-5.72-8.14-5.11-10.95.8-11.26,25.34,3.77,21.85,4.06-.94,4.32-6.86,10.71-4.79-.17,5.39-4.48,9.82-9.72,10.76-24.92,4.5-23.93-31.13-7.71-33.7,8.43-1.33,16.73,1.41,17.44,10.93Z" fill="#f8f8f8"/>
      <path d="M490.5,327c11.67,1.94,13.23,18.49,2.32,21.32-2.7.7-9.48.32-9.83.67-1.7,1.7,4.35,15.05-7,12v-34c4.47.51,10.24-.71,14.5,0ZM492.76,334.24c-1.96-1.96-8.01-1.04-10.76-1.24.58,4.02-2.19,11.05,3.45,11.05s12.35-4.75,7.31-9.81Z" fill="#f8f8f8"/>
      <path d="M519.5,327c8.95,1.49,13.17,12.78,6.05,19.05-4.36,3.85-9.12,2.94-14.56,2.94v12.01s-6,0-6,0v-34c4.47.51,10.24-.71,14.5,0ZM521.73,341.73c4.94-6.1-4.98-10.87-10.73-8.74v11.01c2.66.3,9.03-.18,10.73-2.27Z" fill="#f8f8f8"/>
      <path d="M621,327v27.5c0,1.39-4.28,5.53-5.94,6.05-6.85,2.13-15.48-1.27-14.05-9.55,5.23-1.59,5.23,2.36,6.99,3.5,2.63,1.69,7-.39,7-3v-24.5h6Z" fill="#f8f8f8"/>
      <path d="M557,328v32h-6v-25l-6.99,3c.26-1.59-.57-4.68.15-5.84.38-.6,11-5.63,12.84-4.16Z" fill="#f8f8f8"/>
      
      <path d="M488.99,653.99c-2.16,2.09-6.04-4.35-6.8-5.69-5.69-10.04-5.92-23.87-.41-34.02.4-.74,3.93-6.06,4.23-6.28.9-.67,3.33.93,2.97,2.47-7.82,7.86-10.02,20.13-6.47,30.51.77,2.24,7.34,12.18,6.48,13.01Z" fill="#e5e5e5"/>
      <circle cx="511.86" cy="631" r="7.14" fill="#f8f8f8"/>
      <path d="M535.01,654c-.25-4.1,3.15-6.1,4.77-9.71,4-8.87,4.1-16.87.25-25.81-1.25-2.9-4.06-5.47-4.85-8.16-.39-1.31-.55-3.05,1.31-2.31,5.67,2.27,9.66,17.87,9.6,23.48-.07,7.03-3.55,20.05-11.08,22.5Z" fill="#e5e5e5"/>
      <path d="M606,390c.42.39.2,9.97.02,11.52-1.36,11.77-14.64,4.92-12.02,2.48,2.75,0,7.77,3.12,7.99-2-9.48,5.18-12.29-10.44-4.03-12.58.57-.15,7.75.3,8.05.57ZM602,400c2.01-14.08-9.26-6.21-5.1-.59l5.1.59Z" fill="#e5e5e5"/>
    
      <path d="M490.76,401.76c-3.2,3.21-9.65-2.26-7.77,6.24h-2.99c-.43-6.33-1.64-11.66,0-18.01,4.14,1.8,7.19-2.86,10.46,1.05,1.91,2.29,2.33,8.69.3,10.72ZM484.54,392.01c-2.22.66-2.76,9.04.96,9.03,5.36-.02,4.15-10.56-.96-9.03Z" fill="#e5e5e5"/>
      <path d="M398,385c7.03-2.54,18.7,4.15,11.09,10.59-4.64,3.92-9.71-2.68-8.09,7.42h-3v-18.01ZM406.85,393.86c3.56-2.18-1.95-7.85-5.85-5.87v6.01c1.56-.26,4.74.54,5.85-.14Z" fill="#e5e5e5"/>
      <path d="M560,403c-4.17-.29-11.83,2.88-11.98-3.6s8.01-3.66,7.99-4.91c-1.23-5.13-4.08.14-7-.5-.85-4.88,6.57-6.35,9.46-2.95,2.56,3.01,1.25,8.25,1.54,11.96ZM555.99,397.01c-2.67-2.64-6.81,5.92-1.5,3.99,1.33-.48,2.09-3.4,1.5-3.99Z" fill="#e5e5e5"/>
      <path d="M529.51,614.01c2.54-.53,6.33,8.22,6.8,10.18,2,8.28.48,17.78-5.83,23.81-5.22-1.18.32-4.96,1.71-8.3,2.42-5.81,2.39-11.59,0-17.39-.81-1.96-6.32-7.54-2.68-8.3Z" fill="#e5e5e5"/>
      <path d="M494.99,614.01c.58.57-4.65,10.32-4.99,13.49-.32,2.94-.15,6.66.44,9.56.46,2.23,7.83,12.86,2.06,10.97-.55-.18-3.81-6.5-4.27-7.75-3.04-8.25-2.75-13.5,1.26-21.28.65-1.26,3.36-7.07,5.51-4.98Z" fill="#e5e5e5"/>
      <path d="M448,403c-7.18,3.05-2.41-9.72-4.5-10.01-6.3-.89-2.59,5.04-3.5,10.01-.97-.17-3.74.24-3.99,0-.47-.45.33-11,0-13.01,12.31-2.48,12.73,1.68,12,13.01Z" fill="#e5e5e5"/>
      <path d="M619,403c-11.49,3.43-18.28-6.95-3.99-8.51-.48-5.39-5.7.91-7-.5-2.44-2.63,6.48-7.58,10.07-2.57,1.98,2.77.5,8.15.93,11.57ZM616,397.01c-7.07-1.31-6.08,6.69-1.16,3.83.34-.2,1.52-3.5,1.16-3.83Z" fill="#e5e5e5"/>
      <path d="M505,403c-.27.25-6.83.77-7.39.71-6.99-.78-5.02-11.12,3.38-8.72l-1.52-3c-13.04,6.68.89-9.23,5,.03.66,1.5.93,10.6.53,10.98ZM502,397.01c-1.66-.14-4.31-.22-4.99,1.5-1.75,4.45,5.43,2.4,4.99-1.5Z" fill="#e5e5e5"/>
      <path d="M464.65,389.3c8.48-.47,8.83,13.99.69,14.39-9.01.45-9.33-13.92-.69-14.39ZM464.62,392.06c-3.97.66-3.12,9.52.76,8.88s3.12-9.52-.76-8.88Z" fill="#e5e5e5"/>
      <path d="M591.96,396.95l-8.96,1.06c.65,5.97,10.44-2.23,7.99,3.48-1.03,2.41-9.59,3.18-10.77-2.22-2.68-12.23,11.46-13.38,11.74-2.32ZM588.99,394.99c.18-4.2-6.17-4.2-5.99,0h5.99Z" fill="#e5e5e5"/>
      <path d="M527.01,403.01c-12.65,3.13-16.43-8.32-3.01-8.01.85-2.03-2.07-3.03-3.41-3.06-.21,0-1.84,3.96-3.58,2.06-2.37-2.59,5.58-7.45,9.07-2.57,1.98,2.77.49,8.15.93,11.58ZM523.99,397.01c-.64-.65-5.55.03-4.99,2.48.75,3.29,7.33-.13,4.99-2.48Z" fill="#e5e5e5"/>
      <path d="M434.47,396.49c0,3.79-3.07,6.87-6.87,6.87s-6.87-3.07-6.87-6.87,3.07-6.87,6.87-6.87,6.87,3.07,6.87,6.87ZM426.58,392.03c-2.78.89-3.26,9,.91,9.02,5.38.03,4.13-10.62-.91-9.02Z" fill="#e5e5e5"/>
      <path d="M547,393.99l-7.99-1c-1.68,13.73,5.76,4.06,7.99,6.01s-8.05,8.51-11.47.98c-3.89-8.57,8.35-15.96,11.47-5.99Z" fill="#e5e5e5"/>
      <path d="M455.26,389.81c.87.76,3.76-.61,2.74,1.68-.65,1.45-4.82,1.01-3.01,7.81.36,1.38,3.74,1.08,3.01,3.69-9.03,2.76-5.94-4.39-7-9.33-.2-.92-2.77-.26-2.01-3.15.11-.41,1.72-.29,1.99-1.25.42-1.46-.56-5.81,3.09-2.8.82.68.57,2.81,1.19,3.35Z" fill="#e5e5e5"/>
      <path d="M501.99,620.01c.66.66-5,8.57-2.49,15.99.22.66,5.36,8.3.02,5.97-2.34-1.02-4.68-9.77-4.49-12.36.16-2.2,3.87-12.66,6.96-9.61Z" fill="#e5e5e5"/>
      <path d="M524.81,620.23c2.77,1.59,3.55,11.07,3.1,14.19-.25,1.72-3.2,10.18-5.9,7.58-.5-.48,3.08-7.38,3.08-10.5,0-3.4-5.89-14.5-.27-11.27Z" fill="#e5e5e5"/>
      <path d="M628.99,389c1.61,5.41-3.04,3.28-3.88,5.61-1.48,4.12,2.94,9.88-4.11,8.39.32-2.01-.47-12.55,0-13,.29-.28,6.66-.42,7.99-1Z" fill="#e5e5e5"/>
      <path d="M514.99,389c1.62,5.41-3.03,3.28-3.87,5.61-1.48,4.12,2.94,9.88-4.11,8.39.34-2.02-.48-12.56-.01-13.01.29-.28,6.44.07,8-.99Z" fill="#e5e5e5"/>
      <path d="M579.01,390c1.28,4.53-2.99,2.1-3.88,4.62-1.47,4.15,2.92,9.87-4.12,8.38v-13.01s8,0,8,0Z" fill="#e5e5e5"/>
      <path d="M570,390c.11.11.12,2.89.01,2.99-.36.35-3.66-.34-4.02,0-1.48,1.4,3.34,12.65-3.99,10.01v-13c1.46.9,7.71-.28,7.99,0Z" fill="#e5e5e5"/>
      <circle cx="567.5" cy="357" r="4.23" fill="#e5e5e5"/>
      <path d="M421,390.01c.48,3.33-3.41,2.11-4.34,4.2-1.14,2.59-.53,6.03-.66,8.8h-2.99s0-13,0-13h7.99Z" fill="#e5e5e5"/>
      <path d="M419.72,333.21c15.54-3.54,15.53,21.41,3.55,22.58s-12.17-20.61-3.55-22.58Z" fill="#181818"/>
      <circle cx="586.39" cy="349.89" r="5.76" fill="#181818"/>
      <path d="M492.76,334.24c5.04,5.06-1.62,9.8-7.31,9.81s-2.87-7.03-3.45-11.05c2.75.2,8.81-.72,10.76,1.24Z" fill="#181818"/>
      <path d="M521.73,341.73c-1.7,2.1-8.07,2.58-10.73,2.27v-11.01c5.75-2.14,15.68,2.63,10.73,8.74Z" fill="#181818"/>
      <path d="M578.24,296.75c-2.04-2.07-2.25-10.46,1.46-11.57,10.91-3.26,5.88,19.01-1.46,11.57Z" fill="#181818"/>
      <path d="M459.24,296.75c-2.05-2.12-2.25-10.47,1.46-11.58,11.13-3.33,5.53,18.83-1.46,11.58Z" fill="#181818"/>
      <path d="M565.76,286.24c4,4,.52,13.55-6.77,10.77v-12.01c1.89-.01,5.41-.12,6.77,1.24Z" fill="#181818"/>
      <path d="M602,400l-5.1-.59c-4.15-5.61,7.11-13.48,5.1.59Z" fill="#181818"/>
      <polygon points="548 292.99 543 292.99 545.01 287 548 292.99" fill="#181818"/>
      <path d="M484.54,392.01c5.11-1.53,6.32,9.02.96,9.03-3.72.01-3.18-8.37-.96-9.03Z" fill="#181818"/>
      <path d="M406.85,393.86c-1.11.68-4.28-.12-5.85.14v-6.01c3.9-1.98,9.41,3.68,5.85,5.87Z" fill="#181818"/>
      <path d="M555.99,397.01c.59.58-.18,3.5-1.5,3.99-5.31,1.93-1.16-6.63,1.5-3.99Z" fill="#3a3b3c"/>
      <path d="M616,397.01c.36.33-.82,3.63-1.16,3.83-4.92,2.86-5.91-5.14,1.16-3.83Z" fill="#3a3b3c"/>
      <path d="M502,397.01c.45,3.91-6.74,5.95-4.99,1.5.68-1.72,3.33-1.64,4.99-1.5Z" fill="#3a3b3c"/>
      <path d="M464.62,392.06c3.88-.64,4.73,8.22.76,8.88s-4.73-8.22-.76-8.88Z" fill="#181818"/>
      <path d="M588.99,394.99h-5.99c-.18-4.2,6.17-4.2,5.99,0Z" fill="#3a3b3c"/>
      <path d="M523.99,397.01c2.34,2.35-4.24,5.77-4.99,2.48-.56-2.45,4.35-3.13,4.99-2.48Z" fill="#3a3b3c"/>
      <path d="M426.58,392.03c5.04-1.6,6.29,9.05.91,9.02-4.17-.02-3.69-8.14-.91-9.02Z" fill="#181818"/>
    </g>
  </g>
</svg>