<?xml version="1.0" encoding="UTF-8"?>
<svg id="Camada_1" xmlns="http://www.w3.org/2000/svg" version="1.1" viewBox="0 0 794.59 1456.68">
  <!-- Generator: Adobe Illustrator 29.8.3, SVG Export Plug-In . SVG Version: 2.1.1 Build 3)  -->
  <path d="M482.84,0H24.84h458Z" fill="#393a3b"/>
  <path d="M426.84,1448H77.84c.77-.78,1.07-1.24,2.4-1.06h343.21c1.67-.35,2.25.34,3.39,1.06Z" fill="#e8e8e8"/>
  <path d="M22.84,1448c-5.93-.52-12.48,1.19-18-1,3.79.66,15.89-1.35,18,1Z" fill="#e8e8e8"/>
  <path d="M.84,41c.06-5.5-.43-11.63,0-17,1.68,4.64,1.68,12.29,0,17Z" fill="#1c1d1f"/>
  <path d="M594.84,427c-1.9-4.15-.92-10.22-1-15,1.85,4.12.99,10.25,1,15Z" fill="#393a3b"/>
  <g>
    <rect x="26.84" y="58.47" width="453.88" height="1335.06" fill="#363738"/>
    <path d="M504.84,56V22c2.09,11.42.55,22.76,0,34Z" fill="#393a3b"/>
    <path d="M491.84,3c2.65,1.38,3.01,2.07,5,4l-1,1c-.21-.2-4.71-2.87-5-3l1-2Z" fill="#1c1d1f"/>
    <path d="M490.84,5c.29.13,4.79,2.8,5,3,.77.72,6,11.64,6,12.5v36l-497.86-.14c1.87-11.13-.24-22.76.87-33.85C5.84,12.7,12.12,5.91,21.4,3.06l461.99-.12c2.39.1,5.31,1.08,7.45,2.05h0Z" fill="#393a3b"/>
    <rect x="4.84" y="61" width="19" height="1313" fill="#e8e8e8"/>
    <rect x="482.84" y="61" width="19" height="1313" fill="#e8e8e8"/>
    <rect x="504.84" y="375.96" width="7.09" height="328.98" fill="#363738"/>
    <rect x="504.84" y="72.93" width="7.06" height="113.12" fill="#e8e8e8"/>
    <path d="M73.84,1448c-.06,3.28-1.49,4.47-4.56,4.91-7.58,1.07-28.14.92-36.01.15-3.26-.32-6.03-1.27-6.44-5.06h47.01Z" fill="#363738"/>
    <g>
      <path d="M499.84,1447c-5.69,1.67-11,.86-17,1,2.44-2.38,13.1-.33,17-1Z" fill="#e8e8e8"/>
      <rect x="4.84" y="1376.92" width="497.05" height="67.08" fill="#393a3b"/>
      <path d="M478.84,1448c-.41,3.8-3.18,4.74-6.44,5.06-11.32,1.11-24.5-.92-36.04-.08-2.02-.38-4.68-2.73-4.52-4.98h47Z" fill="#363738"/>
    </g>
    <rect x="247.79" y="774.89" width="11.1" height="457.06" fill="#137cf0"/>
    <rect x="91.85" y="145.94" width="323.98" height="13.11" fill="#137cf0"/>
    <rect x="196.74" y="1318.95" width="112.21" height="9.09" fill="#0e0e0f"/>
    <rect x="196.79" y="1338" width="112.83" height="8" fill="#0e0e0f"/>
    <rect x="196.79" y="1301" width="112.1" height="8" fill="#0e0e0f"/>
    <g>
      <path d="M24.84,0h458c3.29.1,6.17,1.53,9,3l-1,2c-2.14-.97-5.06-1.95-7.45-2.05l-461.99.12C12.12,5.92,5.84,12.71,4.85,22.52c-1.12,11.09,1,22.72-.87,33.85l497.86.14V20.51c0-.86-5.23-11.78-6-12.5l1-1c5.96,5.78,6.46,6.61,8,15v34c-.1,2.09-.51,13.52,0,14.01.64.61,8.3-1.79,9.79,4.71.97,4.22-.66,25.31.26,26.24l36.53,9.97c11.43,4.66,4.42,26.51,6.61,36.39,44.66,38.85,54.93,103.89,59.8,160.19,4.46,51.5,4.92,104.39,7.05,155.95.55,13.28.37,26.6.91,39.88,19.01,5.67,23.58,12.98,29.6,30.63,1.9,5.57,2.43,4.45,4.03,7.95,14.22,31.18,28.52,62.7,38.89,95.11,1.99,6.23,11.22,29.87,10.35,34.22-.41,2.06-2.7,3.89-2.58,6.08l9.24,36.59c-.17,5.2-5.83,5.85-5.33,9.33,28.53,98.24,63.86,198.78,78.73,300.37,11.72,80.05,8.82,193.47-35.94,263.6-45.12,70.7-134.16,73.95-185.36,6.7-71.02-93.29-56.62-286.37-56.58-399.92,1.66-1.04,1-3.79,1.02-5.49.13-10.16-.02-20.36-.02-30.51,0-15.65-.03-31.35,0-47,1.85-4.82.99-11.58,1-17,.05-29.4.81-58.62,2-88,.39-9.74,1.09-20.5,2.04-30.46-1.43-4.21,1.85-22.41.47-24.55-.63-.98-1.39-1.17-2.5-.98,2.16,16.8-3.48,37.82-1.01,53.99-.88,4.96-5.5,3.33-9.02,4.57l.1,734.96c-.1,2.01-3.31,2.95-5.08,3.47-3.9.67-14.56-1.38-17,1-1.96,1.9-1.47,7.46-5.69,7.77-13.1-.48-27.97,1.44-40.86.28-9.04-.82-5.31-5.44-9.45-8.05-1.14-.72-1.72-1.41-3.39-1.07H80.24c-1.32-.18-1.63.29-2.4,1.07-2.21,2.23-.82,6.7-5.72,7.78-11.37,2.52-28.63-1.93-40.65.89-7.9-.53-6.14-5.89-8.63-8.68-2.11-2.35-14.21-.34-18-1-3.87-1.53-3.67-2.29-4.05-6.45-1.88-20.96,1.01-43.28.95-64.15C.51,937.69-1.42,498.21,1.64,59.51c.04-5.73-.86-12.3-.8-18.5,1.68-4.71,1.68-12.36,0-17C1.89,10.78,11.14.09,24.84.01h0ZM23.84,61H4.84v1313h19V61ZM479.84,258c-.03-65.65.02-131.35,0-197H26.84v1313h452c.07-11.5-.08-23.03-.04-34.54.41-118.89-.04-237.25.04-356.46v-1c-1.37-113.21,5.27-229.86,1-343-.07-1.88.12-7.97-1-9,1.69-36.91.95-74.02,1-111,.07-47.98-.01-96.02,0-144v-117ZM501.84,61h-19v1313h19V61ZM511.9,72.93h-7.06v113.12h7.06v-113.12ZM554.84,145v-26.5c0-.98-2.6-3.79-3.98-4.02l-36.02-10.48v68l24.01,1c-.75-4.32.81-8.4,1.04-12.46.31-5.5-1.6-29.94,1.94-32.06,9.33-5.57,9.01,13.95,13.02,16.52h-.01ZM547.83,140c.63-.69-.59-6.84-1.53-7.96-4.57-5.44-5.86,8.63,1.53,7.96ZM542.84,142v27.5c0,.91,6.64,4.75,8.01,5.99,44.29,40.23,43.5,168.14,45.95,225.05.87,20.21,2.14,40.62,3.08,60.92.43,9.3-.9,18.68,1.15,27.85,1.06,2.83,17.71,8.44,20.8,11.69-.21-8.82.29-17.72.06-26.55-.54-20.24-2.33-40.74-3.09-60.91-2.79-74.15,1.07-207.25-58.95-260.05-1.64-1.45-16.04-12.56-17.01-11.49h0ZM514.84,176c.68,10.91.88,12.55-10.06,14.61l.04,181.82c.21,1.34,8.31-1.22,9.81,5.28l.38,44.62c1.31,3.81,18.61,6.03,22.19,10.92,7.01,9.57,1.28,29.69,4.11,33.78.21.3,5.9,3.64,6.25,3.75,6.16,1.84,15.2,5.81,20.05,6.95,3.97.93,7.55.22,12.21,1.79,5.11,1.73,10.79,7.03,15.56,8.45,2.41.72,1.6-5.86,1.51-7.52-.95-17.91-2-35.5-2.04-53.46-.01-4.75.85-10.88-1-15-.34-19.73-.91-39.83-1.96-59.54-2.39-45.02-8.17-140.78-42.14-172.86-7.43-7.02-5.91-2.87-13.45-2.57-2.12.09-3.98-1.03-5.44-1.03-4.05-1.66-11.74-1.69-16,0h-.02ZM511.93,375.96h-7.09v328.98h7.09v-328.98ZM537.84,453c-.05-5.54.53-13.5-3.55-17.95-3.22-3.51-14.82-5.77-19.45-8.05v170c5.4,1.53,28.99-4.09,29.92-9.64.16-.94-10.61-12.13-12.34-14.45-13.97-18.77-17.58-41.31-14.48-64.31,1.93-14.31,10.38-33.39,25.89-36.62l-10.98-5.56c-8.57,1.82-3.66-5.82-.82-10.26.32-.49,1.73-.06,1.81-.17,1.45,4.69-4.46,7.62,3.99,9-.01-3.99.04-8.01,0-12h.01ZM693.7,633.13c-.87-.54-3.54.11-5.13-.36-5.01-1.48-10.52-7.4-13.13-11.89-11.61-20.02-18.89-47.24-29.93-68.07-3.27-3.67,2.53-13.84,1.88-14.85s-5.34-2.64-7.07-3.98c-6.05-4.68-11.47-12.58-17.49-17.51-15.51-12.72-40.34-19.16-57.94-29.06-5.33-4.03-1.66-5.02-2.23-7.85-.24-1.22-12.55-6.38-14.16-6.33-4.33.13-14.4,7.21-17.2,10.72-9.43,11.87-11.54,33.77-10.35,48.39.31,3.79,2.46,17.99,4.89,20.11,4.02,3.49,23.13,4.98,28.97,7.52-1.33-3.6-2.7-5.28-3.03-9.45-1.52-19.28,14.97-29.23,32.59-23.59,17.43,5.58,36.37,19.57,45.62,35.38,5.38,9.2,24.84,50.34,25.83,59.17,1.81,16.07-9.7,25.4-23.95,29.56-1.67,1.95,7.34,17.12,6.95,20.95,18.79-9.28,37.85-18.37,58-24.49,2.4-1.42-2.5-13.98-3.15-14.38h.03ZM618.8,503.05l-39.22-20.28-14.73-1.76c-1.55,1.35,4.52,4.73,5.32,5.17,14.57,8.03,31.11,13.14,45.63,21.41,2,.45,3.85-3.32,3-4.53h0ZM652.84,535.99c-4.35-17.4-11.4-24.01-28.3-29.2-1.24-.38-2.11-1.55-3.22.18-2.57,4.04,2.63,5.59,4.54,7.51,3.11,3.13,23.29,24.98,26.98,21.51ZM647.48,638.64c5.14-5.22,6.22-10.55,4.9-17.69-1.74-9.4-17.53-42.44-22.69-52.31-9-17.23-30.34-35.64-49.81-39.19-14.73-2.69-27.01,6.56-24.96,21.96,1.65,12.4,12.26,9.65,21.92,12.07,24.35,6.11,31.05,26.79,40.17,47.83,5.18,11.95,9.65,24.33,13.87,36.64,1.9,1.36,14.74-7.44,16.6-9.32h0ZM661.84,556.99c.57-.59-5.7-14.51-6.41-15.08-2.74-2.19-5.62-.47-6.83,2.35-2.21,5.14,4.72,18.83,7.07,24.41,7.6,18.04,16.64,35.65,24.34,53.66,2.92,4.52,8.53,7.22,13.83,7.66-.57-2.29-5.26-15.32-6.09-15.93-.88-.65-6.06,1.72-7.9.93-1.06-3.12,6.05-5.03,5.96-5.47-.16-.78-3.63-9.16-4.05-9.47-.91-.67-7.16,2.68-7.91-.58-.56-2.43,3.77-2.34,4.58-3.43s-2.24-9.67-2.66-9.98c-1.33-.96-7.22,2.56-7.91-.59-.58-2.66,5.05-3.13,5.02-4.02,0-.34-1.79-6.23-2.04-6.47-.77-.72-5.7,2.63-6.98-.51-1.49-3.65,3.87-2.63,4.02-4.07-2.43-7.04-2.48-10.98-11.02-8.42-1.4-4.74,4.57-4.56,5-5.01l-.02.02ZM537.8,559.04c-.36-.36-8.4-1.46-9.95-2.04-1.05.98,7.21,14.02,9.5,14.99.59-1.82.91-12.49.45-12.95ZM536.84,896c-.4,49.12-.39,98.65,1.04,147.46,1.97,67.18,9.52,206.57,69.7,248.51,55.22,38.49,66.62-38.76,70.25-76.48,13.5-140.47-35.06-275.48-55.82-412.16-10.74-70.69-12.65-139.17-19.18-209.82-1.39-15.09-13.55-22.81-26.75-27.25l-35.23-5.27v17c0,.31,3.19,1.22,5,3.51,10.25,12.95,8.29,49.39,2.31,64.27-.46,1.13-2.66,1.88-3.68,4.31-3.14,7.48-1.32,19.37-1.72,27.31-3.4,66.84-5.19,133.59-5.91,200.6-.06,5.99.05,12.01,0,18h-.01ZM514.84,601v45c5.46.94,1.99-2.92,2.09-6.4.45-15.85,26.31-10.99,27.76-4.92.48,2.01-2.75,7.79.13,9.31,5.56-17.09,7.21-35.58,2-52.99-9.48,7.06-19.99,11.16-31.99,10h0ZM644.34,1305c-5.11.85-12.14-.62-17.5,0,.23,1.52,3.41,2.22,4.75,2.75,9.26,3.66,32.4,8.68,40.75,3.25,10.96-7.13,20.84-38.55,23.81-51.19,29.61-126.01-14.13-273.51-38.03-397.61-11.07-57.48-18.76-115.39-24.28-173.72-.7-7.41.04-16.32-1.24-23.76-.92-5.33-5.75-9.95-4.21-15.76l-21.05-49.98c-.85.02-.56,9.09-.49,10.5,2.76,55.14,7.81,114.21,15.12,168.88,19.6,146.69,75.84,295.27,58.75,445-2.28,19.94-11.88,77.54-36.38,81.62v.02ZM705.74,720.1c-1.55-1.1-20.12,6.43-20.8,8.58-.18.56-.17,1.14-.09,1.71,15.66,45.97,29.76,92.57,42.71,139.4,30.95,111.96,59.88,229.98,28.21,345.64-15,54.75-51.79,117.61-118.92,98.07-89.32-26-99.57-185.51-101.96-261.04-3.82-120.44-.56-241.71,4-361.92-1.5-17.09,2.98-36.27,1.02-53.1-.78-6.71-13.17-6.65-17.04-2.93-1.36,1.3-1.82,4.14-2.01,5.99-1.33,12.85-.45,27.97-.96,41.04-4.81,122.97-8.06,246.77-5,369.92,1.93,77.52,7.21,179.41,57.54,242.46,49.42,61.9,131.07,59.68,175.44-6.39,51.57-76.78,48.51-203.08,32.66-290.71-16.95-93.71-48.15-185.54-74.78-276.72h-.02ZM704.84,666.99c-1.97-3.95-2.3-16.15-7.37-15.96-3.88.15-17.84,5.98-22.31,7.79s-32.92,14.59-33.08,16.66c2.63,3.26,4.99,14.1,8.47,15.34,3.94,1.4,3.09-1.62,5.32-3.27,12.98-9.57,33.53-16.06,48.97-20.56h0ZM702.84,672c-1.92-1.9-27.71,8.94-31.68,10.83-6.34,3.02-19.1,7.07-11.72,15.26,3.76.62,12.9-9.13,15.9-3.08,4.81,9.68-19.19,6.7-8.02,17.9,4.07-2.3,16.96-10.5,15.55-.46-.91,6.46-16.08,2.71-9.26,13.28,4.11,6.36,6.42.81,11.01-1.44,4.72-2.31,15.05-7.26,19.72-8.37,2.57-.61,6.17.42,7.04-.86,3.22-4.78-10.81-35.31-8.55-43.06h.01ZM707.84,1156c.13,8.63.15,17.37,0,26-.72,40.51-4.13,82.22-22.73,118.73l-7.27,9.26c42.8-9.39,64.25-58.3,74.71-96.77,27.96-102.82,7.42-206.15-18.79-306.64-15.28-58.57-33.13-116.69-51.86-174.12-3.6.48-7.72.13-10.08-2.94l-17.08-32.92c-8.56-2.68-10.04-6.88-13.76-14.24-1.02-2.02-1.71-8-4.15-5.84,2.89,27.89,4.52,56.11,8.03,83.96,16.87,133.5,60.88,260,62.97,395.52h.01ZM501.89,1376.92H4.84v67.08h497.05v-67.08ZM73.84,1448H26.84c.41,3.8,3.18,4.74,6.44,5.06,7.87.77,28.42.92,36.01-.15,3.06-.43,4.49-1.63,4.56-4.91h-.01ZM478.84,1448h-47c-.16,2.25,2.5,4.6,4.52,4.98,11.54-.84,24.72,1.19,36.04.08,3.26-.32,6.03-1.27,6.44-5.06h0Z" fill="#0e0e0f"/>
      <path d="M514.84,706c.08-.76-.95-1.67-1-2-2.47-16.17,3.16-37.2,1.01-53.99,1.11-.19,1.87,0,2.5.98,1.38,2.14-1.9,20.34-.47,24.55-.95,9.96-1.65,20.72-2.04,30.46h0Z" fill="#e8e8e8"/>
      <path d="M510.84,894c0-10.15-.12-20.35-.02-30.51.02-1.69-.64-4.45,1.02-5.49,0,10.15.14,20.35.02,30.51-.02,1.69.64,4.45-1.02,5.49Z" fill="#393a3b"/>
      <path d="M511.84,811c0-5.42-.85-12.18,1-17,0,5.42.85,12.18-1,17Z" fill="#393a3b"/>
      <path d="M705.74,720.1c26.63,91.18,57.83,183.01,74.78,276.72,15.85,87.64,18.92,213.93-32.66,290.71-44.37,66.06-126.02,68.28-175.44,6.39-50.33-63.04-55.62-164.94-57.54-242.46-3.06-123.15.19-246.94,5-369.92.51-13.07-.37-28.19.96-41.04.19-1.85.66-4.69,2.01-5.99,3.88-3.72,16.26-3.78,17.04,2.93,1.96,16.83-2.52,36.01-1.02,53.1-4.56,120.21-7.82,241.48-4,361.92,2.39,75.52,12.64,235.04,101.96,261.04,67.12,19.54,103.92-43.32,118.92-98.07,31.68-115.66,2.74-233.68-28.21-345.64-12.94-46.83-27.05-93.43-42.71-139.4-.07-.57-.08-1.15.09-1.71.68-2.14,19.25-9.68,20.8-8.58h.02Z" fill="#363738"/>
      <path d="M644.34,1305c24.5-4.08,34.1-61.68,36.38-81.62,17.09-149.74-39.15-298.32-58.75-445-7.3-54.68-12.36-113.74-15.12-168.88-.07-1.41-.36-10.48.49-10.5l21.05,49.98c-1.54,5.81,3.29,10.43,4.21,15.76,1.28,7.44.54,16.34,1.24,23.76,5.52,58.33,13.21,116.24,24.28,173.72,23.89,124.1,67.63,271.6,38.03,397.61-2.97,12.64-12.85,44.06-23.81,51.19-8.36,5.43-31.5.41-40.75-3.25-1.34-.53-4.52-1.23-4.75-2.75,5.36-.62,12.39.85,17.5,0v-.02Z" fill="#363738"/>
      <path d="M693.7,633.13c.64.4,5.55,12.96,3.15,14.38-20.16,6.12-39.21,15.21-58,24.49.38-3.82-8.62-19-6.95-20.95,14.25-4.15,25.75-13.48,23.95-29.56-.99-8.83-20.45-49.97-25.83-59.17-9.25-15.81-28.19-29.8-45.62-35.38-17.61-5.64-34.11,4.31-32.59,23.59.33,4.17,1.7,5.85,3.03,9.45-5.84-2.54-24.96-4.02-28.97-7.52-2.44-2.12-4.58-16.32-4.89-20.11-1.19-14.63.92-36.52,10.35-48.39,2.79-3.52,12.87-10.59,17.2-10.72,1.62-.05,13.92,5.11,14.16,6.33.57,2.82-3.1,3.82,2.23,7.85,17.6,9.89,42.43,16.34,57.94,29.06,6.02,4.93,11.44,12.83,17.49,17.51,1.73,1.34,6.43,2.98,7.07,3.98s-5.15,11.18-1.88,14.85c11.03,20.83,18.31,48.05,29.93,68.07,2.6,4.49,8.12,10.41,13.13,11.89,1.58.47,4.26-.18,5.13.36h-.03Z" fill="#e8e8e8"/>
      <path d="M542.84,142c.97-1.07,15.37,10.04,17.01,11.49,60.01,52.8,56.16,185.91,58.95,260.05.76,20.17,2.55,40.67,3.09,60.91.24,8.83-.26,17.72-.06,26.55-3.09-3.25-19.74-8.86-20.8-11.69-2.05-9.18-.72-18.56-1.15-27.85-.94-20.29-2.21-40.7-3.08-60.92-2.45-56.91-1.65-184.82-45.95-225.05-1.37-1.24-8.01-5.08-8.01-5.99v-27.5h0Z" fill="#363738"/>
      <path d="M647.48,638.64c-1.85,1.88-14.7,10.68-16.6,9.32-4.22-12.32-8.69-24.69-13.87-36.64-9.12-21.05-15.81-41.73-40.17-47.83-9.66-2.42-20.26.33-21.92-12.07-2.05-15.4,10.22-24.65,24.96-21.96,19.47,3.55,40.8,21.96,49.81,39.19,5.16,9.87,20.95,42.91,22.69,52.31,1.32,7.14.24,12.48-4.9,17.69h0Z" fill="#e8e8e8"/>
      <path d="M537.84,453c-6.09-.99-3.19,1.89-4,3-.08.11-1.49-.32-1.81.17-2.84,4.44-7.75,12.08.82,10.26l10.98,5.56c-15.51,3.22-23.96,22.3-25.89,36.62-3.09,23,.51,45.54,14.48,64.31,1.73,2.32,12.5,13.51,12.34,14.45-.93,5.55-24.53,11.17-29.92,9.64v-170c4.63,2.28,16.22,4.54,19.45,8.05,4.08,4.44,3.51,12.41,3.55,17.95h0Z" fill="#363738"/>
      <path d="M554.84,145c-4.01-2.56-3.69-22.09-13.02-16.52-3.54,2.11-1.64,26.56-1.94,32.06-.23,4.06-1.78,8.14-1.04,12.46l-24.01-1v-68l36.02,10.48c1.37.23,3.98,3.05,3.98,4.02v26.5h.01Z" fill="#363738"/>
      <path d="M702.84,672c-2.26,7.75,11.77,38.28,8.55,43.06-.87,1.29-4.47.25-7.04.86-4.66,1.11-15,6.06-19.72,8.37-4.59,2.25-6.9,7.8-11.01,1.44-6.83-10.57,8.35-6.83,9.26-13.28,1.41-10.05-11.48-1.84-15.55.46-11.17-11.2,12.84-8.22,8.02-17.9-3.01-6.04-12.14,3.7-15.9,3.08-7.38-8.18,5.38-12.24,11.72-15.26,3.96-1.89,29.76-12.72,31.68-10.83h-.01ZM698.54,682.19c-1.62.02-15.58,6.55-16.25,7.81-5.06,9.58,19.55,1.52,20.46-1.65.58-2-1.99-6.18-4.22-6.15h0ZM704.72,698.12c-1.95-1.23-12.45,2.76-13.88,4.36-2.15,2.41-.95,7.38,2.31,7.32.69-.01,12.18-4.38,12.54-4.95.65-1.05-.3-6.31-.97-6.73Z" fill="#363738"/>
      <path d="M514.84,601c12,1.16,22.51-2.94,31.99-10,5.21,17.41,3.56,35.9-2,52.99-2.89-1.51.35-7.3-.13-9.31-1.46-6.07-27.31-10.93-27.76,4.92-.1,3.48,3.37,7.34-2.09,6.4v-45h0Z" fill="#1c1d1f"/>
      <path d="M704.84,666.99c-15.44,4.5-36,10.99-48.97,20.56-2.23,1.65-1.38,4.67-5.32,3.27-3.47-1.23-5.84-12.07-8.47-15.34.17-2.07,28.83-14.93,33.08-16.66,4.47-1.82,18.43-7.64,22.31-7.79,5.06-.2,5.4,12.01,7.37,15.96h0Z" fill="#363738"/>
      <path d="M661.84,556.99c-.42.44-6.4.26-5,5.01,8.54-2.56,8.59,1.39,11.02,8.42-.15,1.45-5.51.42-4.02,4.07,1.28,3.13,6.21-.21,6.98.51.25.23,2.03,6.13,2.04,6.47.02.89-5.6,1.37-5.02,4.02.69,3.15,6.58-.37,7.91.59.43.31,3.47,8.88,2.66,9.98s-5.13,1-4.58,3.43c.75,3.25,7-.1,7.91.58.41.31,3.89,8.69,4.05,9.47.09.44-7.02,2.35-5.96,5.47,1.84.79,7.02-1.58,7.9-.93.83.61,5.52,13.64,6.09,15.93-5.3-.44-10.91-3.14-13.83-7.66-7.7-18.02-16.74-35.62-24.34-53.66-2.35-5.59-9.28-19.27-7.07-24.41,1.21-2.82,4.1-4.54,6.83-2.35.71.57,6.97,14.49,6.41,15.08l.02-.02Z" fill="#363738"/>
      <path d="M652.84,535.99c-3.69,3.47-23.87-18.38-26.98-21.51-1.91-1.92-7.11-3.46-4.54-7.51,1.1-1.73,1.98-.56,3.22-.18,16.9,5.19,23.96,11.8,28.3,29.2Z" fill="#363738"/>
      <path d="M618.8,503.05c.84,1.22-1,4.98-3,4.53-14.52-8.26-31.06-13.38-45.63-21.41-.8-.44-6.87-3.82-5.32-5.17l14.73,1.76,39.22,20.28h0Z" fill="#363738"/>
      <path d="M537.8,559.04c.45.46.14,11.13-.45,12.95-2.29-.97-10.55-14.01-9.5-14.99,1.55.57,9.6,1.67,9.95,2.04Z" fill="#1c1d1f"/>
      <path d="M537.84,453c.03,3.99-.02,8.01,0,12-8.46-1.38-2.54-4.31-3.99-9,.81-1.11-2.09-3.99,4-3h-.01Z" fill="#1c1d1f"/>
      <path d="M547.83,140c-7.39.67-6.1-13.4-1.53-7.96.94,1.12,2.16,7.27,1.53,7.96Z" fill="#363738"/>
      <path d="M707.84,1182c.15-8.63.13-17.37,0-26,1.66,1.04,1,3.8,1.02,5.49.07,6.54.75,14.34-1.02,20.51Z" fill="#e8e8e8"/>
      <path d="M536.84,896c.05-5.99-.06-12.01,0-18,1.67,5.01,1.68,12.92,0,18Z" fill="#e8e8e8"/>
      <path d="M530.84,176h-16c4.26-1.69,11.95-1.66,16,0Z" fill="#393a3b"/>
      <path d="M698.54,682.19c2.23-.03,4.8,4.15,4.22,6.15-.92,3.17-25.53,11.23-20.46,1.65.66-1.25,14.62-7.79,16.25-7.81h0Z" fill="#0e0e0f"/>
      <path d="M704.72,698.12c.67.42,1.62,5.68.97,6.73-.36.57-11.85,4.94-12.54,4.95-3.26.06-4.47-4.91-2.31-7.32,1.43-1.6,11.94-5.6,13.88-4.36Z" fill="#0e0e0f"/>
    </g>
    <g>
      <path d="M425.84,279c.66,97.95.37,196.05,0,294v9c-.03,6.65.05,13.35,0,20-.06,8.31.19,16.69,0,25-.26,11.67.77,20.11-7,30-.48.61-4.2,4.29-5,5-3.1,2.75-8.32,5.98-12,9-1.32,1.09-2.21,2.35-3,3-16.47,13.49-36.8,32.69-58.45,34.05-56.67,3.57-117.03-2.8-174.09,0-8.57-.76-15.63-2.45-22.98-7.02-10.85-6.73-44.53-33.07-52.9-42.1-10.76-11.6-9.41-23.79-9.61-38.47-1.49-108.46.24-218.31,1.04-326.96.14-18.59-2.87-38.08.24-56.76,1.46-8.79,11.66-17.52,20.35-18.65l300.9-.07c29.56,2.99,22.37,39.65,22.51,60.99h-.01ZM102.58,221.24c-9.99,2.1-17.31,9.84-17.78,20.22v397.08c-.05,9.3,5.54,16.14,12.02,21.97,11.8,10.61,32.12,26.83,45.1,35.9,4.87,3.41,9.9,5.79,15.66,7.34l189.8.28c3.82-.35,8.11-1.78,11.5-3.5,10.3-5.24,42.03-31.7,51.49-40.51,7.11-6.62,11.3-11.49,12.35-21.65l.17-394.92c-.99-13.37-7.98-21.32-21.51-22.49l-298.79.28h0Z" fill="#0e0e0f"/>
      <path d="M102.58,221.24l298.79-.28c13.53,1.17,20.52,9.12,21.51,22.49l-.17,394.92c-1.05,10.16-5.24,15.03-12.35,21.65-9.45,8.81-41.18,35.27-51.49,40.51-3.39,1.73-7.68,3.15-11.5,3.5l-189.8-.28c-5.76-1.55-10.79-3.94-15.66-7.34-12.98-9.08-33.3-25.3-45.1-35.9-6.48-5.83-12.07-12.67-12.03-21.97V241.46c.47-10.38,7.79-18.12,17.78-20.22h.02ZM187.83,282.99c2.27-2.22-6.26-11.27-14.35-4.85-5.04,4-3.94,17.45,3.92,18.83,9.15,1.6,13.59-8.32,6.98-7.02-.83.16-.72,2.4-2.16,2.91-9.2,3.26-9.41-12.05-3.85-12.91,3.38-.52,7.54,4.93,9.46,3.05h0ZM206.49,278.35c-7.53-7.7-21.43,2.43-14.85,14.36,7.14,12.96,25.71-3.26,14.85-14.36ZM228.84,297c.75-.74,0-18.04,0-21,0-.2-3.85-.14-4,0-.56.53.79,12.97-.5,13.01-1.56-1.46-6.98-12.48-7.61-12.88-.78-.49-3.15-.26-3.96.3-.97.67-3.49,23.08,3.07,20.56l.5-12.99c1.84,2.01,8.75,16.69,12.5,13h0ZM232.84,276v21h13c1.52-7.12-4.87-2.45-9.02-4.58v-4.43c1.5-.28,7.86.64,8.02-.5.79-5.65-3.57-3.77-8-2.5v-5c4.81-.63,10.47,2.52,8.99-3.99h-13,.01ZM265.83,282.99c1.32-1.26-2.67-5.9-4.01-6.47-14.67-6.19-19.49,22.94-2.56,20.44,6.36-.94,8.67-8.36,3.24-6.81-1.9.54-3.52,4.85-7.68,2.36-3.04-1.81-4.49-13.65,4.53-12.62,1.47.17,4.17,5.32,6.48,3.1ZM282.84,276c-.52-.54-12.85,0-15,0-.2,0,.13,3.28,0,4,.83.2,5.01-.25,5.01,0v15.5c0,1.88,5,1.88,5,0v-15.5c0-.25,4.18.19,5.01,0-.16-.97.24-3.74,0-4h-.02ZM300.84,296.99c-1.62-3.84-5.61-19.59-8.66-20.84-.72-.29-2.69-.43-3.24-.05-.85.59-5.11,17.09-7.06,19.41,6.25,4.87,2.52-5.39,11.48-3.53,3.59.74,1.72,6.56,7.48,5.02h0ZM302.84,297c8.75.68,17.08.27,17.08-10.5s-8.33-11.18-17.08-10.5v21ZM329.57,276.23c-10.55,2.19-9.76,19.33-.15,20.73,15.82,2.3,15.16-23.84.15-20.73ZM160.61,324.26c-20.96.75-20.42,33.13-4.2,35.67,28.6,4.49,26.62-36.47,4.2-35.67ZM211.84,335.99c-2.52-14.16-22.54-15.33-28.56-3.06-11.26,22.98,19.55,40.05,28.56,16.07-6.98-2.37-7.71,3.86-11.71,4.79-17,3.94-14.7-29.85,1.49-22.06,3.04,1.46,3.34,6.4,10.22,4.26h0ZM233.34,325c-4.74-.84-11.49.61-16.5,0v35h7.01v-12c10.58,1.6,21.32-3.96,17.55-16.05-.82-2.63-5.41-6.47-8.05-6.94h-.01ZM263.34,325c-4.74-.84-11.49.61-16.5,0v35h7.01v-12c10.58,1.6,21.32-3.96,17.55-16.05-.82-2.63-5.41-6.47-8.05-6.94h-.01ZM300.84,325c-5.63-.31-16.66,3.82-14.99,11l7.99-2v26h7v-35ZM340.84,332.99c-8.69-20.72-23.81,3.24-21.91,16.42,2.39,16.52,25.9,12.78,24.87-1.8-.63-8.99-8.96-12.88-16.95-9.62,3.2-10.42,6.4-4.99,13.99-5h0ZM366.84,325h-7v26.5c0,1.71-4.21,3.42-6.6,1.56-2.19-1.7-.94-4.55-7.4-3.06-.14,8.54,8.27,13.19,15.7,9.19,1.51-.81,5.3-4.32,5.3-5.69v-28.5ZM315.51,356.01c0-2.37-1.92-4.3-4.3-4.3s-4.3,1.92-4.3,4.3,1.92,4.3,4.3,4.3,4.3-1.92,4.3-4.3ZM134.84,389.5c-1.23,3.98.91,13.76,0,18.5,5.83,1.46,3.35-6.35,4-7,.36-.35,6.19,1.04,8.88-3.63,5.06-8.77-11.61-12.01-12.88-7.87ZM193.84,390c-2.28-2.38-2.93,1.96-3.08,2.17-.94,1.31-2.6.76-1.93,3.32.11.4,1.83.39,2,1.18,1.08,4.8-2.74,12.06,6.01,11.33,1.27-4.58-2.66-2.13-3.06-3.54-.16-.55-.16-7.36,0-7.91.34-1.22,2.75-.24,3.06-.55,2.6-2.62-2.63-2.95-2.84-3.16-.61-.61.04-2.62-.17-2.84h0ZM158.84,395.99c2.33-3.08-7.76-3.19-8.53-2.02l.54,14.04h2.99c.43-2.73-.86-7.78.49-10.02.95-1.58,4.37-1.8,4.51-2h0ZM164.57,393.18c-8.99,1.88-6.55,16.41,2.72,14.83,8.17-1.39,6.79-16.82-2.72-14.83ZM174.84,393c-.54.52.4,12.76,0,15h3c-1.81-15.71,8.29-16.66,6.01,0h2.99c-.35-3.26,1.13-12.27-1.66-14.08-4.09-2.65-6.96,1.25-7.29,1.03-.19-.12-.86-4.08-3.04-1.96h0ZM203.57,393.18c-7.69,1.59-6.94,16.98,3.54,14.62,8.1-1.83,5.53-16.49-3.54-14.62ZM223.85,407c9.71,5.35,13.55-11.61,5.26-13.85-1.33-.36-8.64-.09-9.12,1.49-1.59,5.16,1.96,12.81.86,18.36h2.99v-6ZM246.83,408c-.44-3.89,1.09-9.18-.93-12.56-2.53-4.23-10.78-2.89-10.06,2.56l6.99-1.99c1.58,4.98-5.55,1.84-7.55,6.01-3.46,7.25,7.94,5.44,11.54,5.98h0ZM252.79,393.07c-3.89-3.35-3.04,13.31-2.95,14.94h2.99c.49-.46-.55-7.45.13-9.38.77-2.2,7.01-1.61,4.37-5.63l-4,2.01c-.98.07-.24-1.67-.54-1.93h0ZM269.83,408c-.67-5.64,2.94-15.06-5.49-15.05-4.64,0-7.34,4.55-3.97,5.06,1.52.23,5.22-4.98,6.48.48.03,1.12-8.09-.85-8.11,5-.02,6.86,7.02,3.09,11.09,4.5h0ZM290.84,397.99c-3.83-11.29-16.63-1.63-10.89,7.4,3.77,5.93,13.64.45,10.89-2.39-.71-.74-9.41,5.45-9-2.41.44-8.44,7.89-1.61,9-2.6h0ZM303.83,408c-.74-5.27,2.81-14.28-4.6-14.99-3.3-.32-7.18,3.11-5.39,4.99.81.84,6.73-5.36,6.99,1-3.46-.97-10.2,1.95-8.54,5.97,2.04,4.92,7.75,1.6,11.54,3.03h0ZM306.84,393v15c6.64.85,2.98-7.04,3.93-10.39.38-1.32,4.65.13,4.07-4.11l-8.01-.51h.01ZM319.79,393.07c-3.89-3.35-3.04,13.31-2.95,14.94h2.99c.41-3.23-1.21-8.93,1.44-11.1,1.66-1.36,5.3.01,3.05-3.92l-4,2.01c-.98.07-.24-1.67-.54-1.93h.01ZM328.84,402.01c19.28,3.38,5.16-15.33-2.03-6.54-6.7,8.19,7.71,19.86,10.02,7.54-3.7,1.18-5.47,3.99-7.99-.99h0ZM340.84,411.99c.4.6,6.12,1.26,7.46,1.01,6.35-1.16,5.34-18.24,3.56-19.58-.29-.22-6.74-.35-7.28-.25-7.96,1.5-5.96,18,3.73,13.82,2.32,6.91-5.5,1.05-5.98,1.03-.99-.04-2.06,3.11-1.49,3.97h0ZM366.83,408c-.33-4.09,1.13-9.55-1.51-12.98-3.99-5.19-11.66.55-9.48,2.98.69.77,5.01-3.3,6.99-1.99v2.99c-3.76-.15-7.87,0-7.98,4.59-.16,6.92,7.72,2.89,11.98,4.41ZM369.84,393v15h3c.5-.47-.56-7.48.12-9.38.84-2.33,5.49-.21,3.88-5.61h-7ZM228.84,458c-4.23.57-11.07,4.29-14.48,7.02-4.82,3.86-16.02,20.24-18.52,21.48-6.89,3.41-21.27,1.78-29.51,7.49-8.72,6.04-14.41,33.23-7.96,40.98,4.29,5.16,16.03,1.96,17.36,3.14.26.23.34,2.51.9,3.56,9.08,17.17,33.12,14.94,38.21-3.67h25.5c1.88,0,1.88-5,0-5h-29.5c-.24,0-.06,3.09-.77,4.72-5.94,13.77-25.37,14.16-29.77.31-.48-1.53-.3-4.84-.48-5.01-1.52-1.51-13.86,1.26-16.59-.91-4.86-3.87-.89-24.27,1.84-29.36,5.49-10.27,25.08-7.6,33.7-12.3,4.43-2.41,13.25-17.52,19.04-21.96,2.24-1.72,5.21-3.47,7.96-4.04,10.26-2.11,45.01-1.35,56.6-.49,5.87.44,9.34,1.32,13.93,5.07,8.1,6.63,11.86,18.53,22.51,21.49,5.1,1.42,14.1,1.42,17.98,5.02s8.25,32.1,5.14,36.05c-2.5,3.17-13.56.27-15,1.5-.4.34-1.62,7.31-3.64,9.86-6,7.59-20.2,6.63-25.29-1.63-1.08-1.74-2.78-8.33-3.67-8.33h-32c-1.88,0-1.88,5,0,5h29.5c.36,0,1.45,4.74,2.76,6.74,6.59,10.07,22.11,11.48,30.64,3.15,2.3-2.25,5.29-9.43,5.76-9.73,2.62-1.64,11.84,2.51,15.9-4.61,3.49-6.13-1.28-36.32-6.55-41.55-6.14-6.09-17.11-4.27-23.43-7.57-4.93-2.57-12.38-15.38-18.16-19.84-5.29-4.08-11.3-5.98-17.91-6.59-1.86-1.68-7.14-1.68-9,0-5.95-.2-12.04-.05-18,0-5.82-1.77-13.31-1.08-19.51-1.02-1.69.02-4.45-.64-5.49,1.02h0ZM285.34,457v1c.65-.33.65-.67,0-1ZM236.84,513h16c-1.53,8.84-4.05,18.05-3.5,27l19.5-37h-15c.33-8.03,1.8-15.94,2.57-23.94.13-1.35,1.45-2.38-1.05-2.05l-18.51,35.99h-.01ZM231.83,620c-6.85,2.19-10.95,15.06-10.98,21.5-.02,4.23,5.34,21.62,9.5,22.5,6.03,1.27-.96-6-1.35-6.66-5.04-8.7-5.92-18.21-1.94-27.61,1.49-3.52,4.68-5.83,4.77-9.72h0ZM273.84,662.99c5.14,4.73,10.97-17.41,11.06-20.49.15-5.3-3.6-20.46-9.55-21.52-3.94-.7.84,3.84,1.32,4.68,5.07,8.72,6.47,17,2.94,26.61-.69,1.89-6.3,10.23-5.77,10.72h0ZM237.84,626.01c-2.2-2.07-5.94,4.61-6.49,6-2.65,6.72-2.33,16.17,1.66,22.33,1.49,2.3,6.36,6.14,4.63,1.37-2.54-6.97-5.79-7.51-4.79-17.22.34-3.35,5.49-12.03,4.99-12.49h0ZM267.84,657.99c5.82.42,8.99-11,9.07-15.5.08-4.19-3.03-15.74-7.57-16.51-3.94-.67,2.33,6.36,2.98,8.03,3.85,9.85-.56,15.48-4.48,23.98ZM264.82,631.01c-.76-.54-2.82.76-2.98,1.51-.18.85,4.28,5.26,4.06,9.97-.13,2.82-4.62,8.97-4.06,9.51,3.24,3.09,6.84-7.21,6.9-9.59.05-2.01-2.77-10.59-3.93-11.4h.01ZM243.84,632.01c-2.48-2.35-5.64,4.64-5.93,6.56-.6,3.95.41,15.09,5.94,12.93.24-3.26-4.31-5.42-2.78-12.77.33-1.56,3.55-5.97,2.76-6.72h0ZM259.73,641.91c0-3.59-2.91-6.49-6.49-6.49s-6.49,2.91-6.49,6.49,2.91,6.49,6.49,6.49,6.49-2.91,6.49-6.49Z" fill="#1c1d1f"/>
      <path d="M253.84,458c5.96-.05,12.05-.2,18,0,2.94.1,6.14-.26,9,0,6.62.61,12.62,2.5,17.91,6.59,5.78,4.46,13.23,17.27,18.16,19.84,6.32,3.3,17.29,1.49,23.43,7.57,5.27,5.23,10.05,35.42,6.55,41.55-4.05,7.11-13.28,2.97-15.9,4.61-.48.3-3.47,7.48-5.76,9.73-8.52,8.33-24.05,6.92-30.64-3.15-1.31-2.01-2.39-6.74-2.76-6.74h-29.5c-1.88,0-1.88-5,0-5h32c.88,0,2.59,6.59,3.67,8.33,5.09,8.25,19.29,9.21,25.29,1.63,2.02-2.55,3.24-9.52,3.64-9.86,1.44-1.24,12.5,1.66,15-1.5,3.11-3.95-1.33-32.51-5.14-36.05s-12.88-3.6-17.98-5.02c-10.65-2.97-14.41-14.86-22.51-21.49-4.59-3.75-8.06-4.63-13.93-5.07-11.59-.87-46.34-1.62-56.6.49-2.76.57-5.73,2.32-7.96,4.04-5.79,4.44-14.61,19.54-19.04,21.96-8.62,4.69-28.21,2.03-33.7,12.3-2.72,5.1-6.7,25.5-1.84,29.36,2.73,2.17,15.08-.6,16.59.91.18.18,0,3.49.48,5.01,4.4,13.86,23.83,13.47,29.77-.31.7-1.63.53-4.72.77-4.72h29.5c1.88,0,1.88,5,0,5h-25.5c-5.09,18.62-29.13,20.85-38.21,3.67-.55-1.05-.64-3.32-.9-3.56-1.33-1.18-13.07,2.02-17.36-3.14-6.44-7.75-.76-34.94,7.96-40.98,8.24-5.71,22.62-4.08,29.51-7.49,2.5-1.24,13.7-17.62,18.52-21.48,3.41-2.73,10.25-6.45,14.48-7.02,7.01-.94,17.48.06,25,0h0Z" fill="#e8e8e8"/>
      <path d="M236.84,513l18.51-35.99c2.5-.33,1.18.7,1.05,2.05-.77,8-2.24,15.91-2.57,23.94h15l-19.5,37c-.54-8.94,1.97-18.15,3.5-27h-16,.01Z" fill="#137cf0"/>
      <path d="M160.61,324.26c22.42-.8,24.4,40.16-4.2,35.67-16.21-2.54-16.75-34.92,4.2-35.67ZM157.54,331.21c-9.12,2.71-8.61,27.33,7.35,22.34,9.38-2.93,7.85-26.86-7.35-22.34Z" fill="#e8e8e8"/>
      <path d="M340.84,332.99c-7.59.01-10.79-5.42-13.99,5,8-3.26,16.32.63,16.95,9.62,1.03,14.58-22.48,18.31-24.87,1.8-1.91-13.18,13.21-37.14,21.91-16.42h0ZM330.57,342.16c-7.06,1.08-6.23,12.78.6,12.59,8.7-.25,7.06-13.76-.6-12.59Z" fill="#e8e8e8"/>
      <path d="M211.84,335.99c-6.88,2.14-7.18-2.8-10.22-4.26-16.19-7.79-18.49,25.99-1.49,22.06,4-.93,4.73-7.16,11.71-4.79-9.01,23.98-39.82,6.91-28.56-16.07,6.01-12.27,26.04-11.11,28.56,3.06h0Z" fill="#e8e8e8"/>
      <path d="M263.34,325c2.64.47,7.23,4.31,8.05,6.94,3.78,12.1-6.96,17.66-17.56,16.05v12.01h-7v-35c5.01.61,11.76-.84,16.5,0h.01ZM252.84,342c16.74,2.88,16.76-13.89,0-11.01v11.01Z" fill="#e8e8e8"/>
      <path d="M233.34,325c2.64.47,7.23,4.31,8.05,6.94,3.78,12.1-6.96,17.66-17.56,16.05v12.01h-7v-35c5.01.61,11.76-.84,16.5,0h.01ZM222.84,342c16.74,2.88,16.76-13.89,0-11.01v11.01Z" fill="#e8e8e8"/>
      <path d="M366.84,325v28.5c0,1.37-3.8,4.88-5.3,5.69-7.43,4.01-15.84-.64-15.7-9.19,6.45-1.49,5.21,1.36,7.4,3.06,2.39,1.85,6.6.14,6.6-1.56v-26.5h7Z" fill="#e8e8e8"/>
      <path d="M300.84,325v35h-7v-26l-7.99,2c-1.67-7.17,9.37-11.3,14.99-11Z" fill="#e8e8e8"/>
      <path d="M228.84,297c-3.75,3.69-10.66-10.98-12.5-13l-.5,12.99c-6.55,2.52-4.03-19.89-3.07-20.56.8-.56,3.18-.79,3.96-.3.64.4,6.06,11.42,7.61,12.88,1.29-.04-.06-12.48.5-13.01.14-.14,4-.2,4,0,0,2.96.75,20.26,0,21h0Z" fill="#137cf0"/>
      <path d="M302.84,297v-21c8.75-.68,17.08-.27,17.08,10.5s-8.33,11.18-17.08,10.5ZM306.84,293c.23.22,4.36.08,5.31-.2,4.51-1.34,4.85-10.36.7-12.31-1.12-.52-5.64-.87-6.01-.5-.46.46-.46,12.55,0,13.01Z" fill="#137cf0"/>
      <path d="M206.49,278.35c10.85,11.1-7.71,27.32-14.85,14.36-6.57-11.93,7.32-22.05,14.85-14.36ZM197.54,280.19c-5.99,1.84-4.71,15.41,4.6,12.62,4.49-1.35,4.94-15.54-4.6-12.62Z" fill="#137cf0"/>
      <path d="M329.57,276.23c15.01-3.11,15.67,23.03-.15,20.73-9.61-1.4-10.4-18.54.15-20.73ZM329.53,280.19c-5.5,1.7-4.97,15.49,4.6,12.62,4.62-1.39,4.49-15.44-4.6-12.62Z" fill="#137cf0"/>
      <path d="M232.84,276h13c1.48,6.52-4.18,3.37-9.01,3.99v5c4.44-1.27,8.8-3.15,8.01,2.5-.16,1.14-6.53.22-8.01.5v4.43c4.14,2.13,10.53-2.54,9.01,4.57h-13v-21h0Z" fill="#137cf0"/>
      <path d="M300.84,296.99c-5.77,1.54-3.89-4.27-7.48-5.02-8.96-1.86-5.23,8.41-11.48,3.53,1.96-2.32,6.21-18.82,7.06-19.41.55-.38,2.53-.25,3.24.05,3.05,1.25,7.04,17.01,8.66,20.84h0ZM293.84,288.99l-2.98-7.99-2.01,7.99h5,0Z" fill="#137cf0"/>
      <path d="M187.83,282.99c-1.93,1.88-6.08-3.57-9.46-3.05-5.56.86-5.35,16.17,3.85,12.91,1.44-.51,1.33-2.75,2.16-2.91,6.6-1.3,2.17,8.61-6.98,7.02-7.87-1.37-8.97-14.83-3.92-18.83,8.09-6.42,16.62,2.64,14.35,4.85h0Z" fill="#137cf0"/>
      <path d="M265.83,282.99c-2.31,2.21-5.01-2.94-6.48-3.1-9.02-1.02-7.57,10.81-4.53,12.62,4.16,2.49,5.78-1.82,7.68-2.36,5.43-1.55,3.12,5.87-3.24,6.81-16.94,2.51-12.11-26.63,2.56-20.44,1.34.57,5.33,5.21,4.01,6.47Z" fill="#137cf0"/>
      <path d="M340.84,411.99c-.57-.86.51-4,1.49-3.97.48.02,8.3,5.88,5.98-1.03-9.7,4.18-11.69-12.33-3.73-13.82.54-.1,6.99.03,7.28.25,1.78,1.35,2.79,18.42-3.56,19.58-1.34.24-7.06-.41-7.46-1.01h0ZM348.69,396.15c-5.92-3.62-8.18,7.49-3.16,8.74s5.12-7.55,3.16-8.74Z" fill="#e8e8e8"/>
      <path d="M231.83,620c-.09,3.89-3.28,6.2-4.77,9.72-3.98,9.4-3.1,18.91,1.94,27.61.39.67,7.38,7.93,1.35,6.66-4.16-.88-9.52-18.27-9.5-22.5.03-6.43,4.13-19.31,10.98-21.5h0Z" fill="#e8e8e8"/>
      <path d="M223.85,407v6h-3.01c1.1-5.56-2.45-13.2-.86-18.36.49-1.58,7.79-1.85,9.12-1.49,8.29,2.24,4.45,19.19-5.26,13.85h.01ZM225.44,396.09c-2.71.89-3.05,10.75,2.8,8.83,2.71-.89,3.05-10.75-2.8-8.83Z" fill="#e8e8e8"/>
      <path d="M273.84,662.99c-.53-.49,5.08-8.83,5.77-10.72,3.53-9.61,2.12-17.89-2.94-26.61-.49-.84-5.26-5.38-1.32-4.68,5.96,1.06,9.71,16.22,9.55,21.52-.09,3.08-5.92,25.22-11.06,20.49h0Z" fill="#e8e8e8"/>
      <path d="M282.84,276c.24.25-.16,3.03,0,4-.83.2-5.01-.25-5.01,0v15.5c0,1.88-5,1.88-5,0v-15.5c0-.25-4.18.19-5.01,0,.14-.71-.19-4,0-4,2.15,0,14.48-.54,15,0h.02Z" fill="#137cf0"/>
      <path d="M134.84,389.5c1.28-4.14,17.94-.9,12.88,7.87-2.7,4.67-8.53,3.28-8.88,3.63-.65.65,1.83,8.46-4,7,.91-4.74-1.23-14.52,0-18.5ZM137.84,398c9.83,1.9,9.93-8.87,0-7.01v7.01Z" fill="#e8e8e8"/>
      <circle cx="253.24" cy="641.91" r="6.49" fill="#e8e8e8"/>
      <path d="M328.84,402.01c2.53,4.99,4.3,2.18,7.99.99-2.31,12.32-16.72.65-10.02-7.54,7.19-8.79,21.3,9.92,2.03,6.54h0ZM334.83,398.99c.18-4.2-6.17-4.2-5.99,0h5.99Z" fill="#e8e8e8"/>
      <path d="M246.83,408c-3.6-.54-15.01,1.27-11.54-5.98,1.99-4.17,9.12-1.04,7.55-6.01l-6.99,1.99c-.73-5.45,7.52-6.78,10.06-2.56,2.02,3.38.5,8.67.93,12.56h0ZM243.83,401.01c-3.4-.38-5.58.3-4.99,3.99,3.4.38,5.58-.3,4.99-3.99Z" fill="#e8e8e8"/>
      <path d="M366.83,408c-4.25-1.52-12.14,2.51-11.98-4.41.11-4.58,4.22-4.74,7.99-4.59v-2.99c-1.99-1.31-6.31,2.76-7,1.99-2.18-2.42,5.49-8.16,9.48-2.98,2.63,3.42,1.18,8.89,1.51,12.98ZM363.84,401.01c-.37-.37-4.68.37-5.41.91-4.25,3.15,6.52,5.8,5.41-.91Z" fill="#e8e8e8"/>
      <path d="M303.83,408c-3.79-1.43-9.5,1.89-11.54-3.03-1.66-4.02,5.08-6.94,8.54-5.97-.26-6.36-6.18-.16-6.99-1-1.79-1.87,2.08-5.31,5.39-4.99,7.41.71,3.86,9.73,4.6,14.99ZM300.83,401.01c-3.27-.37-5.59.21-4.99,3.99h5v-3.99h-.01Z" fill="#e8e8e8"/>
      <path d="M164.57,393.18c9.51-1.99,10.89,13.44,2.72,14.83-9.26,1.58-11.7-12.95-2.72-14.83ZM164.49,396.12c-4.16,1.36-2.82,10.6,2.7,8.77,3.92-1.3,2.72-10.55-2.7-8.77Z" fill="#e8e8e8"/>
      <path d="M203.57,393.18c9.07-1.87,11.64,12.79,3.54,14.62-10.49,2.36-11.23-13.03-3.54-14.62ZM203.44,396.08c-2.52.83-3.32,10.48,2.7,8.76,4.89-1.39,2.5-10.47-2.7-8.76Z" fill="#e8e8e8"/>
      <path d="M269.83,408c-4.08-1.41-11.11,2.36-11.09-4.5.02-5.85,8.14-3.88,8.11-5-1.26-5.47-4.97-.26-6.48-.48-3.37-.51-.67-5.05,3.97-5.06,8.44-.01,4.83,9.4,5.49,15.05h0ZM266.83,401.01c-2.41-.43-5.86.21-4.99,3.48s7.15.33,4.99-3.48Z" fill="#e8e8e8"/>
      <path d="M267.84,657.99c3.92-8.51,8.33-14.13,4.48-23.98-.65-1.66-6.91-8.69-2.98-8.03,4.54.77,7.65,12.32,7.57,16.51-.08,4.5-3.25,15.92-9.07,15.5Z" fill="#e8e8e8"/>
      <path d="M237.84,626.01c.49.46-4.65,9.14-4.99,12.49-1,9.71,2.25,10.25,4.79,17.22,1.74,4.77-3.14.93-4.63-1.37-3.99-6.16-4.31-15.61-1.66-22.33.55-1.39,4.29-8.07,6.49-6h0Z" fill="#e8e8e8"/>
      <path d="M174.84,393c2.18-2.12,2.85,1.84,3.04,1.96.34.22,3.2-3.68,7.29-1.03,2.79,1.81,1.32,10.82,1.66,14.08h-2.99c2.28-16.67-7.82-15.72-6.01,0h-3c.4-2.24-.54-14.48,0-15.01h0Z" fill="#e8e8e8"/>
      <path d="M290.84,397.99c-1.12.98-8.56-5.84-9,2.6-.41,7.86,8.29,1.67,9,2.41,2.75,2.84-7.12,8.32-10.89,2.39-5.74-9.03,7.06-18.69,10.89-7.4h0Z" fill="#e8e8e8"/>
      <path d="M193.84,390c.21.22-.44,2.23.17,2.84.21.21,5.44.54,2.84,3.16-.31.31-2.72-.67-3.06.55-.16.55-.16,7.36,0,7.91.4,1.41,4.33-1.04,3.06,3.54-8.75.74-4.93-6.52-6.01-11.33-.18-.79-1.9-.77-2-1.18-.67-2.56.99-2.01,1.93-3.32.15-.21.81-4.56,3.08-2.17h0Z" fill="#e8e8e8"/>
      <path d="M306.84,393l8.01.51c.58,4.24-3.69,2.79-4.07,4.11-.96,3.35,2.7,11.23-3.93,10.39v-15h-.01Z" fill="#e8e8e8"/>
      <path d="M243.84,632.01c.79.75-2.44,5.16-2.76,6.72-1.53,7.35,3.01,9.5,2.78,12.77-5.53,2.16-6.54-8.98-5.94-12.93.29-1.92,3.45-8.91,5.93-6.56h0Z" fill="#e8e8e8"/>
      <path d="M264.82,631.01c1.15.81,3.98,9.39,3.93,11.4-.06,2.38-3.66,12.68-6.9,9.59-.57-.54,3.93-6.69,4.06-9.51.22-4.71-4.24-9.12-4.06-9.97.16-.75,2.22-2.05,2.98-1.51h-.01Z" fill="#e8e8e8"/>
      <path d="M158.84,395.99c-.15.2-3.56.42-4.51,2-1.35,2.24-.05,7.29-.49,10.02h-2.99l-.54-14.04c.77-1.17,10.86-1.05,8.53,2.02h0Z" fill="#e8e8e8"/>
      <path d="M252.79,393.07c.3.26-.44,2,.54,1.93l4-2.01c2.64,4.03-3.6,3.44-4.37,5.63-.68,1.93.36,8.92-.13,9.38h-2.99c-.09-1.63-.94-18.29,2.95-14.94h0Z" fill="#e8e8e8"/>
      <path d="M369.84,393h6.99c1.62,5.41-3.04,3.29-3.88,5.62-.68,1.9.38,8.91-.12,9.39h-3v-15.01h.01Z" fill="#e8e8e8"/>
      <path d="M319.79,393.07c.3.26-.44,2,.54,1.93l4-2.01c2.25,3.93-1.4,2.56-3.05,3.92-2.65,2.17-1.04,7.86-1.44,11.1h-2.99c-.09-1.63-.94-18.29,2.95-14.94h-.01Z" fill="#e8e8e8"/>
      <circle cx="311.21" cy="356.01" r="4.3" fill="#e8e8e8"/>
      <path d="M253.84,458c-7.52.06-17.99-.94-25,0,1.04-1.66,3.8-1,5.49-1.02,6.2-.07,13.69-.76,19.51,1.02Z" fill="#0e0e0f"/>
      <path d="M280.84,458c-2.86-.26-6.06.1-9,0,1.86-1.68,7.14-1.68,9,0Z" fill="#0e0e0f"/>
      <path d="M285.34,457c.65.33.65.67,0,1v-1Z" fill="#0e0e0f"/>
      <path d="M157.54,331.21c15.2-4.52,16.73,19.4,7.35,22.34-15.96,4.99-16.47-19.62-7.35-22.34Z" fill="#1c1d1f"/>
      <path d="M330.57,342.16c7.66-1.17,9.3,12.33.6,12.59-6.83.2-7.66-11.51-.6-12.59Z" fill="#1c1d1f"/>
      <path d="M252.84,342v-11.01c16.76-2.88,16.74,13.89,0,11.01Z" fill="#363738"/>
      <path d="M222.84,342v-11.01c16.76-2.88,16.74,13.89,0,11.01Z" fill="#1c1d1f"/>
      <path d="M306.84,293c-.46-.46-.46-12.55,0-13.01.37-.36,4.89-.02,6.01.5,4.15,1.95,3.82,10.97-.7,12.31-.95.28-5.08.42-5.31.2Z" fill="#1c1d1f"/>
      <path d="M197.54,280.19c9.53-2.92,9.08,11.27,4.6,12.62-9.3,2.79-10.58-10.78-4.6-12.62Z" fill="#1c1d1f"/>
      <path d="M329.53,280.19c9.09-2.82,9.22,11.23,4.6,12.62-9.57,2.87-10.1-10.92-4.6-12.62Z" fill="#1c1d1f"/>
      <polygon points="293.84 288.99 288.84 289 290.85 281.01 293.84 288.99" fill="#1c1d1f"/>
      <path d="M348.69,396.15c1.96,1.2,1.79,9.98-3.16,8.74s-2.76-12.37,3.16-8.74Z" fill="#1c1d1f"/>
      <path d="M225.44,396.09c5.84-1.92,5.51,7.94,2.8,8.83-5.84,1.92-5.51-7.94-2.8-8.83Z" fill="#1c1d1f"/>
      <path d="M137.84,398v-7.01c9.93-1.86,9.83,8.91,0,7.01Z" fill="#363738"/>
      <path d="M334.83,398.99h-5.99c-.18-4.2,6.17-4.2,5.99,0Z" fill="#1c1d1f"/>
      <path d="M243.83,401.01c.59,3.69-1.59,4.37-4.99,3.99-.59-3.69,1.59-4.37,4.99-3.99Z" fill="#363738"/>
      <path d="M363.84,401.01c1.12,6.71-9.66,4.06-5.41.91.73-.54,5.04-1.28,5.41-.91Z" fill="#363738"/>
      <path d="M300.83,401.01v3.99h-4.99c-.6-3.78,1.72-4.36,4.99-3.99Z" fill="#1c1d1f"/>
      <path d="M164.49,396.12c5.41-1.78,6.62,7.47,2.7,8.77-5.52,1.83-6.85-7.41-2.7-8.77Z" fill="#1c1d1f"/>
      <path d="M203.44,396.08c5.2-1.71,7.59,7.37,2.7,8.76-6.02,1.72-5.22-7.93-2.7-8.76Z" fill="#1c1d1f"/>
      <path d="M266.83,401.01c2.17,3.82-4.14,6.67-4.99,3.48s2.57-3.91,4.99-3.48Z" fill="#363738"/>
    </g>
  </g>
</svg>